<svg width="auto" height="auto" viewBox="0 0 2936 725" fill="none" xmlns="http://www.w3.org/2000/svg">
<rect width="2934" height="6448" transform="translate(0 -785)" fill="white"/>
<rect x="2" y="702" width="2934" height="23" fill="#F9A447"/>
<line x1="2787" y1="624.5" x2="2936" y2="624.5" stroke="#514C46"/>
<line x1="2263" y1="624.5" x2="2524" y2="624.5" stroke="#514C46"/>
<line x1="1739" y1="624.5" x2="2000" y2="624.5" stroke="#514C46"/>
<line x1="1215" y1="624.5" x2="1476" y2="624.5" stroke="#514C46"/>
<line x1="691" y1="624.5" x2="952" y2="624.5" stroke="#514C46"/>
<line x1="167" y1="624.5" x2="428" y2="624.5" stroke="#514C46"/>
<rect y="526.341" width="2934" height="4.4592" fill="#514C46"/>
<g clip-path="url(#clip0_0_3)">
<path d="M1621.05 442.358H1290.35V521.884H1621.05V442.358Z" fill="#F9A447"/>
<path d="M1474.98 458.793H1436.42V521.884H1474.98V458.793Z" fill="#514C46"/>
<path d="M1601.77 348.517H1309.63V421.681H1601.77V348.517Z" fill="#F9A447"/>
<path d="M1631.38 353.023H1280.01C1279.42 353.023 1278.85 352.881 1278.36 352.614C1277.88 352.348 1277.5 351.97 1277.28 351.528C1277.06 351.087 1277.01 350.602 1277.13 350.137C1277.25 349.672 1277.55 349.247 1277.97 348.917L1374 274.037V241.421C1374 240.789 1374.31 240.182 1374.86 239.735C1375.41 239.288 1376.16 239.036 1376.94 239.035H1395.9C1396.67 239.036 1397.42 239.288 1397.97 239.735C1398.53 240.182 1398.84 240.789 1398.84 241.421V254.672L1406.09 249.016C1417.96 239.761 1433.71 234.493 1450.17 234.271C1466.63 234.049 1482.59 238.889 1494.83 247.819L1633.35 348.863C1633.79 349.186 1634.1 349.61 1634.24 350.079C1634.38 350.548 1634.34 351.041 1634.13 351.491C1633.92 351.942 1633.54 352.33 1633.05 352.603C1632.56 352.877 1631.98 353.023 1631.38 353.023Z" fill="#514C46"/>
<path d="M1386.75 367.073C1389.19 367.073 1391.61 367.463 1393.87 368.223C1396.13 368.982 1398.19 370.095 1399.92 371.498C1401.65 372.901 1403.02 374.567 1403.95 376.4C1404.89 378.234 1405.37 380.198 1405.37 382.183V402.594H1368.12V382.183C1368.12 380.198 1368.6 378.233 1369.54 376.4C1370.47 374.567 1371.84 372.901 1373.57 371.498C1375.3 370.095 1377.36 368.982 1379.62 368.223C1381.88 367.463 1384.3 367.073 1386.75 367.073Z" fill="white"/>
<path d="M1455.7 367.338C1460.64 367.338 1465.37 368.93 1468.87 371.763C1472.36 374.597 1474.32 378.44 1474.32 382.448V402.86H1437.07V382.448C1437.07 378.44 1439.03 374.597 1442.52 371.763C1446.02 368.93 1450.76 367.338 1455.7 367.338Z" fill="white"/>
<path d="M1524.65 367.603C1529.59 367.603 1534.32 369.195 1537.82 372.028C1541.31 374.862 1543.27 378.705 1543.27 382.713V403.125H1506.02V382.713C1506.02 378.705 1507.98 374.862 1511.48 372.028C1514.97 369.195 1519.71 367.603 1524.65 367.603Z" fill="white"/>
<path d="M1552.1 457.998C1557.04 457.998 1561.77 459.59 1565.27 462.423C1568.76 465.257 1570.72 469.1 1570.72 473.108V493.52H1533.47V473.108C1533.47 469.1 1535.43 465.257 1538.92 462.423C1542.42 459.59 1547.16 457.998 1552.1 457.998Z" fill="white"/>
<path d="M1367.79 457.998C1372.73 457.998 1377.47 459.59 1380.96 462.423C1384.46 465.257 1386.42 469.1 1386.42 473.108V493.52H1349.17V473.108C1349.17 471.123 1349.65 469.159 1350.58 467.325C1351.52 465.492 1352.89 463.826 1354.62 462.423C1356.35 461.02 1358.4 459.907 1360.66 459.148C1362.92 458.389 1365.35 457.998 1367.79 457.998Z" fill="white"/>
<path d="M1669.36 443.599L1607.32 421.332C1606.99 421.212 1606.63 421.151 1606.27 421.151H1310.61C1310.28 421.15 1309.94 421.203 1309.63 421.307L1242.1 443.574C1241.54 443.759 1241.08 444.097 1240.79 444.53C1240.5 444.962 1240.41 445.463 1240.52 445.945C1240.64 446.428 1240.96 446.863 1241.43 447.176C1241.9 447.488 1242.48 447.659 1243.09 447.659H1260.61V520.824H1258.65V528.246H1652.74V520.823H1649.48V447.659H1668.3C1668.9 447.659 1669.48 447.492 1669.95 447.186C1670.41 446.88 1670.74 446.453 1670.86 445.977C1670.98 445.501 1670.9 445.005 1670.63 444.573C1670.36 444.14 1669.91 443.796 1669.36 443.599ZM1644.25 520.823H1265.84V447.659H1644.25V520.823Z" fill="#514C46"/>
<path d="M1409.95 399.678H1362.24V406.041H1409.95V399.678Z" fill="#514C46"/>
<path d="M1479.88 399.678H1432.17V406.041H1479.88V399.678Z" fill="#CACACA"/>
<path d="M1549.81 399.678H1502.1V406.041H1549.81V399.678Z" fill="#CACACA"/>
<path d="M1575.95 491.399H1528.24V497.761H1575.95V491.399Z" fill="#514C46"/>
<path d="M1390.99 491.399H1343.28V497.761H1390.99V491.399Z" fill="#514C46"/>
<path d="M1746.2 528.571H1019.8C1019.59 528.571 1019.38 528.502 1019.23 528.38C1019.08 528.259 1019 528.093 1019 527.921C1019 527.749 1019.08 527.583 1019.23 527.462C1019.38 527.34 1019.59 527.271 1019.8 527.271H1746.2C1746.41 527.271 1746.62 527.34 1746.77 527.462C1746.92 527.583 1747 527.749 1747 527.921C1747 528.093 1746.92 528.259 1746.77 528.38C1746.62 528.502 1746.41 528.571 1746.2 528.571Z" fill="#3F3D56"/>
<path d="M1563.49 347.426C1563.49 347.842 1563.48 348.264 1563.48 348.68C1563.47 349.18 1563.45 349.674 1563.43 350.174C1563.4 350.609 1563.38 351.038 1563.35 351.467C1563.25 352.903 1563.1 354.332 1562.89 355.768C1562.84 356.132 1562.79 356.489 1562.72 356.853C1562.67 357.132 1562.63 357.418 1562.57 357.704C1562.51 358.022 1562.46 358.34 1562.39 358.659C1562.27 359.335 1562.12 360.01 1561.96 360.686C1561.88 361.024 1561.8 361.362 1561.71 361.699C1561.55 362.368 1561.36 363.044 1561.17 363.713C1561.15 363.765 1561.14 363.824 1561.12 363.876C1561.02 364.207 1560.93 364.532 1560.82 364.863C1560.79 364.961 1560.77 365.052 1560.73 365.149C1560.66 365.396 1560.58 365.643 1560.5 365.89C1560.38 366.234 1560.27 366.572 1560.15 366.916C1559.96 367.449 1559.77 367.975 1559.57 368.508C1559.54 368.563 1559.52 368.62 1559.5 368.677C1559.12 369.684 1558.71 370.678 1558.26 371.666C1558.03 372.185 1557.78 372.712 1557.53 373.231C1557.28 373.751 1557.03 374.271 1556.76 374.784C1556.51 375.284 1556.24 375.784 1555.98 376.278C1555.92 376.395 1555.85 376.512 1555.78 376.629C1555.5 377.142 1555.21 377.643 1554.91 378.143C1554.91 378.149 1554.91 378.162 1554.9 378.169C1554.67 378.572 1554.42 378.974 1554.17 379.371C1554.17 379.383 1554.16 379.394 1554.15 379.403C1553.91 379.793 1553.66 380.183 1553.41 380.566L1553 381.196L1552.95 381.268C1552.44 382.041 1551.91 382.808 1551.35 383.568C1551.23 383.737 1551.11 383.906 1550.99 384.068C1550.87 384.237 1550.74 384.406 1550.61 384.568C1550.53 384.685 1550.45 384.802 1550.35 384.919C1550.18 385.14 1550.01 385.367 1549.84 385.588C1549.8 385.634 1549.76 385.679 1549.73 385.725C1549.43 386.108 1549.12 386.485 1548.82 386.868C1548.44 387.329 1548.06 387.784 1547.67 388.239L1538.97 399.53L1538.59 399.277L1538.49 399.199H1538.48L1538.14 398.965L1537.19 398.316C1536.9 398.543 1536.62 398.77 1536.33 398.991C1536.22 399.082 1536.1 399.167 1535.99 399.257C1535.9 399.323 1535.82 399.387 1535.73 399.452C1520.7 411.364 1500.69 418.262 1479.69 418.781H1479.66C1463.76 419.135 1448.02 416.121 1433.99 410.036C1433.68 409.906 1433.37 409.776 1433.07 409.626C1431.24 408.821 1429.46 407.97 1427.7 407.06C1427.69 407.054 1427.69 407.054 1427.68 407.047C1425.64 405.878 1423.66 404.63 1421.72 403.305C1411.32 396.195 1403.1 387.228 1397.69 377.107C1392.28 366.986 1389.83 355.986 1390.54 344.97C1390.57 344.535 1390.6 344.106 1390.64 343.67C1390.77 342.098 1390.96 340.532 1391.23 338.973C1391.3 338.538 1391.38 338.103 1391.46 337.674H1562.67C1563.01 339.662 1563.24 341.661 1563.37 343.67C1563.45 344.925 1563.49 346.172 1563.49 347.426Z" fill="#F0F0F0"/>
<path d="M1562.67 337.674C1559.59 321.046 1549.26 305.866 1533.55 294.896C1517.84 283.925 1497.8 277.891 1477.07 277.891C1456.34 277.891 1436.3 283.925 1420.59 294.896C1404.88 305.866 1394.54 321.046 1391.46 337.674C1391.38 338.103 1391.3 338.538 1391.23 338.973C1390.97 340.533 1390.77 342.098 1390.64 343.671H1563.37C1563.24 341.663 1563.01 339.664 1562.67 337.674Z" fill="#F9A447"/>
<path d="M1482.68 410.034H1433.07V377.844C1433.99 363.133 1449.49 361.945 1464.05 362.735C1466.5 362.735 1468.92 363.126 1471.18 363.885C1473.44 364.644 1475.49 365.757 1477.22 367.16C1478.95 368.563 1480.32 370.229 1481.26 372.062C1482.19 373.895 1482.68 375.86 1482.68 377.844V410.034Z" fill="#F9A447"/>
<path d="M1433.07 387.148V387.154C1433.07 387.16 1433.08 387.16 1433.08 387.16L1433.07 387.148ZM1413.12 337.674C1413.09 337.836 1413.05 337.999 1413.01 338.161C1413.05 337.999 1413.09 337.836 1413.13 337.674H1413.12ZM1412.13 343.671C1412.1 343.917 1412.08 344.164 1412.06 344.411C1412.08 344.164 1412.1 343.917 1412.13 343.671C1412.13 343.625 1412.13 343.579 1412.14 343.534C1412.13 343.58 1412.13 343.625 1412.13 343.671ZM1433.07 387.154C1433.07 387.16 1433.08 387.16 1433.08 387.16L1433.07 387.148V387.154ZM1413.12 337.674C1413.09 337.836 1413.05 337.999 1413.01 338.161C1413.05 337.999 1413.09 337.836 1413.13 337.674H1413.12ZM1412.06 344.411C1412.08 344.164 1412.1 343.917 1412.13 343.671C1412.13 343.625 1412.13 343.579 1412.14 343.534C1412.13 343.58 1412.13 343.625 1412.13 343.671C1412.1 343.917 1412.08 344.164 1412.06 344.411ZM1659.48 463.927C1659.33 463.793 1659.16 463.667 1658.99 463.55L1658.98 463.544L1619.32 436.394L1618.3 435.692L1614.4 433.022L1613.42 432.352L1607.86 428.545L1606.34 427.506L1603.19 425.349L1601.58 424.244L1586.4 413.856L1577.69 407.898L1576.52 407.099L1550.87 389.538C1551.26 389.084 1551.65 388.629 1552.02 388.168C1552.33 387.784 1552.63 387.407 1552.94 387.024C1552.97 386.979 1553.01 386.933 1553.04 386.888C1553.22 386.667 1553.38 386.439 1553.55 386.218C1553.65 386.101 1553.74 385.985 1553.82 385.868C1553.95 385.705 1554.07 385.536 1554.19 385.367C1554.31 385.205 1554.43 385.036 1554.55 384.867C1555.11 384.107 1555.64 383.34 1556.16 382.567L1556.2 382.496L1556.61 381.866C1556.87 381.482 1557.12 381.092 1557.36 380.703C1557.37 380.694 1557.37 380.682 1557.37 380.67C1557.62 380.274 1557.87 379.871 1558.1 379.468C1558.11 379.462 1558.11 379.449 1558.12 379.442C1558.41 378.942 1558.7 378.442 1558.98 377.929C1559.05 377.812 1559.12 377.695 1559.18 377.578C1559.45 377.084 1559.71 376.584 1559.97 376.083C1560.23 375.57 1560.49 375.05 1560.74 374.531C1560.98 374.011 1561.23 373.485 1561.47 372.965C1561.91 371.971 1562.32 370.975 1562.71 369.976C1562.72 369.919 1562.75 369.863 1562.77 369.807C1562.97 369.275 1563.16 368.748 1563.36 368.216C1563.48 367.871 1563.59 367.534 1563.7 367.189C1563.78 366.942 1563.86 366.695 1563.93 366.449C1563.97 366.351 1564 366.26 1564.03 366.163C1564.13 365.831 1564.23 365.507 1564.32 365.175C1564.34 365.123 1564.36 365.065 1564.37 365.013C1564.56 364.344 1564.75 363.668 1564.92 362.999C1565.01 362.661 1565.09 362.323 1565.17 361.985C1565.32 361.31 1565.47 360.634 1565.6 359.958C1565.66 359.64 1565.72 359.322 1565.77 359.003C1565.83 358.717 1565.88 358.432 1565.93 358.152C1565.99 357.788 1566.05 357.431 1566.09 357.067C1566.3 355.631 1566.45 354.202 1566.55 352.766C1566.58 352.337 1566.61 351.909 1566.63 351.473C1566.65 350.973 1566.67 350.479 1566.68 349.979C1566.69 349.563 1566.69 349.141 1566.69 348.725C1566.69 347.471 1566.65 346.224 1566.57 344.97C1566.45 342.962 1566.21 340.964 1565.88 338.973C1563.01 321.961 1552.69 306.355 1536.8 295.007C1520.92 283.659 1500.53 277.328 1479.36 277.17C1458.2 277.012 1437.67 283.039 1421.53 294.148C1405.39 305.257 1394.72 320.707 1391.46 337.674C1391.38 338.103 1391.3 338.538 1391.23 338.973C1390.97 340.533 1390.77 342.098 1390.64 343.671C1390.6 344.106 1390.57 344.535 1390.54 344.97C1389.83 355.986 1392.28 366.986 1397.69 377.107C1403.1 387.229 1411.32 396.196 1421.72 403.305C1423.66 404.631 1425.64 405.878 1427.68 407.047C1427.69 407.054 1427.69 407.054 1427.7 407.06C1428.38 407.45 1429.06 407.833 1429.75 408.21C1430.85 408.795 1431.95 409.367 1433.07 409.912C1433.16 409.951 1433.24 409.997 1433.33 410.036C1434.29 410.504 1435.26 410.952 1436.23 411.387H1436.24C1439.85 412.996 1443.59 414.394 1447.44 415.571C1458.75 419.021 1470.8 420.556 1482.87 420.08H1482.89C1496.97 419.528 1510.68 416.236 1522.86 410.484C1524.63 409.653 1526.38 408.763 1528.08 407.814C1528.51 407.58 1528.94 407.34 1529.36 407.099C1529.87 406.807 1530.38 406.502 1530.9 406.196C1530.9 406.196 1530.9 406.19 1530.91 406.19C1530.95 406.164 1530.99 406.14 1531.03 406.118C1531.38 405.904 1531.73 405.69 1532.06 405.482C1532.15 405.43 1532.24 405.378 1532.33 405.319C1532.35 405.306 1532.37 405.291 1532.39 405.274C1532.59 405.157 1532.79 405.027 1532.99 404.903C1533.19 404.78 1533.38 404.65 1533.58 404.52C1533.61 404.503 1533.64 404.483 1533.67 404.462C1533.9 404.312 1534.12 404.169 1534.35 404.02C1534.58 403.87 1534.8 403.714 1535.02 403.565C1535.24 403.416 1535.46 403.266 1535.68 403.11C1535.88 402.98 1536.08 402.844 1536.27 402.701C1536.33 402.662 1536.39 402.616 1536.45 402.571C1536.48 402.552 1536.51 402.534 1536.53 402.519C1536.8 402.337 1537.05 402.149 1537.31 401.96C1537.37 401.915 1537.43 401.869 1537.49 401.824C1537.89 401.538 1538.28 401.252 1538.66 400.953C1538.75 400.888 1538.85 400.817 1538.94 400.752C1539.02 400.687 1539.1 400.622 1539.19 400.557C1539.3 400.466 1539.42 400.382 1539.54 400.291C1539.83 400.07 1540.11 399.842 1540.39 399.615L1541.34 400.265L1541.68 400.499H1541.69L1541.8 400.576L1542.17 400.83L1547.76 404.663L1547.88 404.747L1547.98 404.806L1548.61 405.241L1549.88 406.112L1551.14 406.976L1551.33 407.099L1557.21 411.127L1558.03 411.686L1563.71 415.571L1593.1 435.692L1594.13 436.394L1634.35 463.927L1644.67 470.989L1648.5 473.614C1649.32 474.173 1650.26 474.596 1651.28 474.86C1652.29 475.123 1653.36 475.221 1654.43 475.149C1655.49 475.077 1656.52 474.835 1657.47 474.438C1658.42 474.041 1659.26 473.496 1659.95 472.834C1660.53 472.286 1660.98 471.662 1661.3 470.989C1661.88 469.797 1662.02 468.492 1661.7 467.237C1661.38 465.982 1660.61 464.831 1659.48 463.927ZM1427.49 313.324C1435.53 305.6 1446.09 299.878 1457.97 296.818C1469.84 293.758 1482.54 293.486 1494.6 296.032C1506.65 298.579 1517.57 303.84 1526.1 311.209C1534.63 318.577 1540.41 327.752 1542.78 337.674C1542.88 338.109 1542.98 338.538 1543.07 338.973C1543.4 340.526 1543.64 342.098 1543.78 343.671C1543.82 344.106 1543.86 344.535 1543.89 344.97C1543.96 345.945 1543.99 346.926 1543.99 347.9C1543.99 353.811 1542.79 359.682 1540.42 365.273V365.279C1537.77 371.547 1533.7 377.359 1528.43 382.418C1528.32 382.522 1528.2 382.632 1528.08 382.736C1527.03 383.75 1525.91 384.724 1524.77 385.653C1524.76 385.66 1524.75 385.673 1524.74 385.679C1524.35 385.998 1523.95 386.322 1523.55 386.621C1522.73 387.265 1521.9 387.875 1521.05 388.46C1519.78 389.363 1518.47 390.21 1517.14 391C1516.69 391.267 1516.24 391.527 1515.78 391.786C1515.33 392.046 1514.88 392.293 1514.42 392.54C1513.51 393.034 1512.58 393.508 1511.64 393.956C1511.18 394.184 1510.7 394.405 1510.22 394.619C1509.75 394.84 1509.27 395.048 1508.79 395.249C1508.31 395.457 1507.83 395.658 1507.34 395.853C1506.37 396.25 1505.4 396.62 1504.4 396.964C1503.91 397.146 1503.41 397.315 1502.91 397.471C1502.6 397.575 1502.3 397.679 1501.98 397.77C1501.86 397.816 1501.74 397.855 1501.61 397.887C1501.44 397.945 1501.27 397.997 1501.1 398.043C1501.05 398.063 1500.99 398.08 1500.93 398.095C1500.59 398.205 1500.25 398.303 1499.9 398.4C1499.4 398.55 1498.89 398.686 1498.38 398.816C1497.87 398.952 1497.36 399.082 1496.85 399.199C1496.34 399.329 1495.82 399.446 1495.3 399.557C1494.78 399.674 1494.27 399.784 1493.75 399.881C1493.2 399.998 1492.65 400.102 1492.08 400.2C1491.6 400.291 1491.12 400.369 1490.63 400.44C1490.17 400.518 1489.71 400.583 1489.25 400.648C1488.61 400.739 1487.97 400.823 1487.32 400.895C1486.97 400.94 1486.62 400.979 1486.27 401.005C1486.12 401.025 1485.97 401.038 1485.83 401.051C1485.38 401.103 1484.93 401.142 1484.49 401.174C1484.37 401.181 1484.26 401.194 1484.15 401.2C1483.66 401.239 1483.16 401.272 1482.67 401.304C1481.63 401.363 1480.58 401.402 1479.54 401.421C1479.01 401.428 1478.47 401.434 1477.94 401.434C1477.41 401.434 1476.88 401.428 1476.36 401.415C1476.36 401.415 1476.36 401.421 1476.35 401.415C1476.34 401.421 1476.34 401.421 1476.33 401.415C1476.33 401.416 1476.33 401.416 1476.33 401.417C1476.33 401.417 1476.33 401.417 1476.32 401.417C1476.32 401.417 1476.32 401.417 1476.32 401.417C1476.32 401.416 1476.32 401.416 1476.32 401.415C1476.29 401.421 1476.26 401.421 1476.24 401.415C1475.86 401.415 1475.48 401.402 1475.11 401.382C1474.84 401.376 1474.56 401.369 1474.28 401.35C1473.91 401.337 1473.53 401.317 1473.15 401.291C1473.03 401.291 1472.91 401.278 1472.79 401.272C1472.74 401.271 1472.68 401.266 1472.62 401.259C1472.24 401.233 1471.85 401.207 1471.46 401.174C1471.27 401.161 1471.07 401.148 1470.88 401.129C1470.29 401.077 1469.71 401.018 1469.13 400.953C1468.47 400.888 1467.82 400.81 1467.17 400.713C1466.87 400.681 1466.57 400.635 1466.27 400.59C1465.88 400.538 1465.49 400.479 1465.1 400.414C1464.69 400.349 1464.28 400.284 1463.87 400.206C1463.54 400.148 1463.21 400.089 1462.88 400.024C1462.72 399.998 1462.56 399.966 1462.4 399.933C1461.56 399.771 1460.73 399.596 1459.91 399.401C1459.39 399.284 1458.86 399.16 1458.35 399.03C1457.65 398.855 1456.95 398.667 1456.25 398.465C1455.98 398.394 1455.72 398.316 1455.44 398.231C1455.17 398.16 1454.91 398.075 1454.64 397.991C1454.39 397.919 1454.14 397.841 1453.9 397.763C1453.5 397.64 1453.11 397.51 1452.71 397.38C1451.9 397.114 1451.11 396.834 1450.32 396.536C1449.87 396.36 1449.42 396.191 1448.98 396.016C1447.24 395.334 1445.53 394.576 1443.85 393.742C1443.43 393.541 1443.02 393.326 1442.6 393.112C1442.08 392.852 1441.57 392.579 1441.07 392.306C1440.79 392.15 1440.52 392.001 1440.24 391.845C1439.74 391.559 1439.24 391.267 1438.75 390.974C1438.5 390.825 1438.24 390.669 1437.99 390.513C1437.1 389.967 1436.23 389.396 1435.37 388.811C1434.97 388.531 1434.56 388.246 1434.16 387.953C1433.99 387.836 1433.82 387.713 1433.65 387.589C1433.46 387.446 1433.27 387.31 1433.08 387.16L1433.07 387.148C1432.79 386.946 1432.51 386.732 1432.24 386.517C1431.81 386.193 1431.39 385.861 1430.99 385.523C1430.58 385.192 1430.18 384.848 1429.78 384.51C1429.38 384.172 1429 383.828 1428.62 383.477C1428.24 383.133 1427.86 382.782 1427.49 382.424C1427.13 382.087 1426.78 381.736 1426.44 381.391C1425.63 380.573 1424.85 379.739 1424.11 378.89C1423.76 378.5 1423.43 378.11 1423.11 377.714C1422.77 377.311 1422.44 376.902 1422.13 376.493C1421.8 376.084 1421.49 375.668 1421.18 375.245C1421.18 375.231 1421.16 375.218 1421.15 375.206C1420.55 374.381 1419.97 373.55 1419.44 372.705C1418.88 371.848 1418.36 370.981 1417.88 370.106C1417.63 369.671 1417.39 369.229 1417.16 368.788C1416.7 367.897 1416.27 367.007 1415.87 366.104C1415.66 365.669 1415.48 365.234 1415.3 364.792C1415.29 364.763 1415.28 364.734 1415.26 364.708C1414.9 363.811 1414.56 362.908 1414.26 361.998C1414.26 361.985 1414.26 361.972 1414.25 361.959C1414.1 361.511 1413.95 361.063 1413.82 360.608C1413.69 360.212 1413.58 359.815 1413.48 359.413C1413.36 358.964 1413.24 358.516 1413.13 358.061C1413.08 357.827 1413.02 357.593 1412.97 357.36C1412.93 357.165 1412.89 356.963 1412.85 356.768C1412.81 356.574 1412.77 356.372 1412.73 356.171C1412.65 355.774 1412.57 355.378 1412.51 354.982C1412.43 354.514 1412.37 354.046 1412.3 353.572C1412.23 353.007 1412.17 352.441 1412.11 351.87C1412.07 351.486 1412.04 351.097 1412.02 350.707C1412 350.349 1411.97 349.992 1411.96 349.635C1411.96 349.616 1411.96 349.595 1411.96 349.576C1411.96 349.576 1411.96 349.575 1411.96 349.573C1411.96 349.572 1411.96 349.571 1411.96 349.57C1411.96 349.569 1411.96 349.567 1411.96 349.566C1411.96 349.565 1411.96 349.564 1411.96 349.563C1411.96 349.557 1411.96 349.557 1411.96 349.55C1411.96 349.55 1411.96 349.549 1411.96 349.547C1411.96 349.546 1411.96 349.545 1411.96 349.544C1411.96 349.543 1411.96 349.541 1411.96 349.54C1411.96 349.539 1411.96 349.538 1411.96 349.537C1411.96 349.394 1411.95 349.252 1411.95 349.109C1411.93 348.686 1411.92 348.264 1411.92 347.842C1411.92 347.458 1411.93 347.082 1411.94 346.698C1411.96 346.166 1411.98 345.633 1412.01 345.1C1412.01 344.983 1412.03 344.873 1412.04 344.756C1412.04 344.639 1412.05 344.528 1412.06 344.411C1412.08 344.164 1412.1 343.917 1412.13 343.671C1412.13 343.625 1412.13 343.579 1412.14 343.534C1412.17 343.255 1412.2 342.976 1412.23 342.696C1412.29 342.137 1412.37 341.572 1412.46 341.014C1412.51 340.734 1412.55 340.455 1412.61 340.175C1412.64 339.981 1412.68 339.779 1412.72 339.578C1412.75 339.376 1412.79 339.175 1412.84 338.974C1412.89 338.707 1412.95 338.434 1413.01 338.161C1413.05 337.999 1413.09 337.836 1413.13 337.674C1413.28 337.024 1413.45 336.375 1413.63 335.725C1413.81 335.069 1414.02 334.419 1414.25 333.77C1414.46 333.113 1414.7 332.457 1414.96 331.801C1415.08 331.47 1415.21 331.145 1415.35 330.82C1415.62 330.164 1415.9 329.514 1416.21 328.871C1416.35 328.553 1416.51 328.228 1416.67 327.909C1416.99 327.266 1417.33 326.623 1417.68 325.993C1417.85 325.674 1418.03 325.356 1418.22 325.038C1418.58 324.408 1418.96 323.777 1419.36 323.16C1419.76 322.53 1420.18 321.913 1420.61 321.302C1421.05 320.691 1421.5 320.081 1421.97 319.476C1422.18 319.178 1422.42 318.872 1422.67 318.58C1423.15 317.982 1423.66 317.384 1424.17 316.8C1425.2 315.617 1426.32 314.454 1427.49 313.324ZM1412.13 343.671C1412.1 343.917 1412.08 344.164 1412.06 344.411C1412.08 344.164 1412.1 343.917 1412.13 343.671C1412.13 343.625 1412.13 343.579 1412.14 343.534C1412.13 343.58 1412.13 343.625 1412.13 343.671ZM1413.12 337.674C1413.09 337.836 1413.05 337.999 1413.01 338.161C1413.05 337.999 1413.09 337.836 1413.13 337.674H1413.12ZM1433.07 387.148V387.154C1433.07 387.16 1433.08 387.16 1433.08 387.16L1433.07 387.148Z" fill="#3F3D56"/>
<path opacity="0.3" d="M1435.38 388.81C1422.71 380.138 1414.52 367.919 1412.45 354.579C1410.37 341.238 1414.56 327.752 1424.17 316.799C1422.91 317.83 1421.69 318.911 1420.51 320.04C1414.92 325.416 1410.68 331.633 1408.05 338.336C1405.42 345.039 1404.45 352.097 1405.18 359.106C1405.91 366.116 1408.34 372.939 1412.32 379.188C1416.3 385.437 1421.76 390.988 1428.39 395.524C1441.78 404.686 1459.1 409.159 1476.55 407.96C1494 406.761 1510.15 399.987 1521.44 389.129C1522.62 387.999 1523.73 386.841 1524.77 385.656C1513.07 395.186 1497.39 400.801 1480.83 401.386C1464.27 401.97 1448.04 397.481 1435.38 388.81Z" fill="black"/>
</g>
<g clip-path="url(#clip1_0_3)">
<path d="M414.19 304.802C422.421 305.687 430.61 306.8 438.755 308.141V309.345C430.661 308.024 422.473 306.926 414.19 306.051C398.476 304.389 382.644 303.547 366.794 303.533H366.259C315.332 303.564 265.01 312.392 218.712 329.418C209.118 332.932 199.74 336.775 190.579 340.944C160.208 354.768 132.462 372.013 108.188 392.155C91.7787 405.768 77.0723 420.639 64.2805 436.557C62.6585 438.568 61.0716 440.598 59.5199 442.649C53.2762 450.866 47.554 459.332 42.3752 468.013C31.2976 486.589 22.7933 506.084 17.015 526.148C16.8771 526.578 16.7554 527.014 16.6338 527.45C16.6013 527.574 16.5608 527.704 16.5283 527.828L14.9469 527.541C14.955 527.509 14.9631 527.483 14.9712 527.45C15.0929 527.014 15.2145 526.584 15.3443 526.148C21.2506 505.593 29.9762 485.627 41.3614 466.614V466.607C46.824 457.457 52.8852 448.545 59.5199 439.909C61.077 437.878 62.6639 435.862 64.2805 433.862C77.0687 418.078 91.7327 403.325 108.067 389.811C118.056 381.547 128.653 373.77 139.801 366.523L139.81 366.517C155.729 356.177 172.713 346.941 190.579 338.907C198.145 335.497 205.82 332.333 213.603 329.418C261.612 311.37 314.007 302.083 367.021 302.224C382.797 302.259 398.554 303.12 414.19 304.802Z" fill="#3F3D56"/>
<path d="M243.394 157.229C267.723 157.229 287.444 141.402 287.444 121.878C287.444 102.353 267.723 86.5257 243.394 86.5257C219.066 86.5257 199.344 102.353 199.344 121.878C199.344 141.402 219.066 157.229 243.394 157.229Z" fill="#FF6584"/>
<path d="M53.6165 519.797C54.9903 523.873 59.6959 526.397 59.6959 526.397C59.6959 526.397 62.1741 522.313 60.8002 518.238C59.4264 514.162 54.7209 511.638 54.7209 511.638C54.7209 511.638 52.2427 515.722 53.6165 519.797Z" fill="#3F3D56"/>
<path d="M55.6351 518.921C59.4049 521.866 59.8653 526.394 59.8653 526.394C59.8653 526.394 54.2138 526.146 50.4441 523.201C46.6744 520.256 46.2139 515.729 46.2139 515.729C46.2139 515.729 51.8654 515.976 55.6351 518.921Z" fill="#F9A447"/>
<path d="M158.236 519.797C159.61 523.873 164.316 526.397 164.316 526.397C164.316 526.397 166.794 522.313 165.42 518.238C164.046 514.162 159.341 511.638 159.341 511.638C159.341 511.638 156.863 515.722 158.236 519.797Z" fill="#3F3D56"/>
<path d="M160.255 518.921C164.025 521.866 164.485 526.394 164.485 526.394C164.485 526.394 158.834 526.146 155.064 523.201C151.294 520.256 150.834 515.729 150.834 515.729C150.834 515.729 156.485 515.976 160.255 518.921Z" fill="#F9A447"/>
<path d="M438.755 162.376V204.464L414.19 217.755L378.1 237.268L337.995 258.961L275.061 233.708L195.542 201.802L178.981 195.157L162.42 184.522L213.554 147.878L228.241 137.355C245.588 124.925 268.029 118.055 291.283 118.055H383.529C390.782 118.055 397.963 119.202 404.663 121.429C411.364 123.656 417.452 126.921 422.58 131.037C427.708 135.152 431.776 140.038 434.551 145.415C437.327 150.793 438.755 156.556 438.755 162.376Z" fill="#514C46"/>
<path d="M414.409 184.333L438.755 163.095C481.325 289.119 484.804 410.954 438.755 527.483H407.864L406.201 526.148L363.137 491.594L338.141 471.534L338.798 467.668L341.069 454.371L346.057 425.127L351.499 393.222L356.941 361.323L362.382 329.418L366.794 303.533L367.021 302.224L367.824 297.512L373.266 265.607L378.1 237.268L378.708 233.708L382.714 210.224L384.377 200.474L414.19 184.522L414.409 184.333Z" fill="#CCCCCC"/>
<path d="M162.418 184.52H414.189V527.485H162.418C134.927 401.995 128.016 284.866 162.418 184.52Z" fill="#F2F2F2"/>
<path d="M306.524 443.738H260.145V527.485H306.524V443.738Z" fill="#CCCCCC"/>
<path d="M382.718 393.224H190.576V425.127H382.718V393.224Z" fill="#514C46"/>
<path d="M397.394 469.452H315.471V483.054H397.394V469.452Z" fill="#514C46"/>
<path d="M251.412 469.452H169.49V483.054H251.412V469.452Z" fill="#514C46"/>
<path d="M382.718 329.416H190.576V361.32H382.718V329.416Z" fill="#514C46"/>
<path d="M382.718 265.609H190.576V297.513H382.718V265.609Z" fill="#514C46"/>
<path d="M382.718 201.801H190.576V233.705H382.718V201.801Z" fill="#514C46"/>
<path d="M438.755 526.148H0V527.45H438.755V526.148Z" fill="#514C46"/>
<path d="M64.2804 375.853H59.5159V526.889H64.2804V375.853Z" fill="#3F3D56"/>
<path d="M108.251 395.101C108.555 447.914 62.2552 490.9 62.2552 490.9C62.2552 490.9 15.4641 448.258 15.1608 395.445C14.8576 342.632 61.1568 299.646 61.1568 299.646C66.0838 285.653 118.801 311.463 108.251 395.101Z" fill="#F9A447"/>
<path opacity="0.1" d="M108.251 395.101C108.555 447.914 62.2552 490.9 62.2552 490.9C62.2552 490.9 15.4641 448.258 15.1608 395.445C14.8576 342.632 61.1568 299.646 61.1568 299.646C66.0838 285.653 118.801 311.463 108.251 395.101Z" fill="black"/>
<path d="M2.34382 375.85H0V526.89H2.34382V375.85Z" fill="#3F3D56"/>
<path d="M46.3166 395.103C102.15 406.71 42.1459 434.259 30.9886 450.296V450.303C23.4662 464.074 13.8444 477.042 2.34382 488.912C1.05432 490.214 0.316305 490.897 0.316305 490.897L0 490.605V300.382C12.2866 312.544 22.5356 325.944 30.4858 340.242V340.248C39.1149 355.752 21.6643 389.978 46.3166 395.103Z" fill="#F9A447"/>
<path d="M114.49 258.584C114.49 258.584 84.1906 258.369 46.6572 258.506C28.6204 258.571 12.1975 258.708 0 258.838V242C13.1221 233.936 30.429 227.512 46.5275 234.788C78.1567 249.094 114.49 258.584 114.49 258.584Z" fill="#F2F2F2"/>
<path d="M182.91 103.599C145.38 103.738 114.831 104.183 114.831 104.183C114.831 104.183 151.143 65.5821 182.774 79.8835C214.406 94.1849 250.742 103.68 250.742 103.68C250.742 103.68 220.441 103.46 182.91 103.599Z" fill="#F2F2F2"/>
<path d="M286.991 116.806L387.708 112.853C401.599 112.308 415.235 115.989 425.891 123.161C436.547 130.333 443.44 140.467 445.191 151.54L457.408 228.774L414.498 184.372L414.409 184.333L286.002 130.884L283.453 129.823C275.659 126.58 278.222 117.15 286.991 116.806Z" fill="#514C46"/>
<path d="M338.19 143.368H256.268V156.971H338.19V143.368Z" fill="#F2F2F2"/>
<path d="M306.561 435.099H268.443C241.895 351.924 241.895 270.349 268.443 190.373H306.561C330.826 273.354 331.697 354.979 306.561 435.099Z" fill="#F2F2F2"/>
</g>
<g clip-path="url(#clip2_0_3)">
<path d="M602 363.349C602 326.18 648.641 237.98 706.177 237.98C763.712 237.98 810.353 326.18 810.353 363.349C810.353 381.199 799.377 398.317 779.841 410.938C760.304 423.559 733.806 430.65 706.177 430.65C678.547 430.65 652.05 423.559 632.513 410.938C612.976 398.317 602 381.199 602 363.349Z" fill="#F9A447"/>
<path d="M706.177 527.084C705.949 527.084 705.731 527.026 705.571 526.922C705.41 526.818 705.32 526.678 705.32 526.531V294.5C705.32 294.353 705.41 294.213 705.571 294.109C705.731 294.005 705.949 293.947 706.177 293.947C706.404 293.947 706.622 294.005 706.782 294.109C706.943 294.213 707.033 294.353 707.033 294.5V526.531C707.033 526.678 706.943 526.818 706.782 526.922C706.622 527.026 706.404 527.084 706.177 527.084Z" fill="#3F3D56"/>
<path d="M706.177 339.295C706.064 339.296 705.953 339.281 705.849 339.253C705.745 339.226 705.65 339.185 705.571 339.133L664.338 312.496C664.257 312.445 664.194 312.384 664.15 312.316C664.106 312.249 664.084 312.177 664.083 312.104C664.083 312.031 664.105 311.959 664.148 311.891C664.191 311.824 664.254 311.762 664.334 311.711C664.414 311.659 664.509 311.618 664.613 311.591C664.718 311.563 664.83 311.549 664.943 311.549C665.056 311.549 665.167 311.564 665.271 311.592C665.376 311.62 665.47 311.661 665.549 311.713L706.782 338.351C706.902 338.428 706.984 338.527 707.017 338.634C707.05 338.741 707.033 338.853 706.968 338.954C706.903 339.055 706.793 339.141 706.652 339.202C706.512 339.263 706.346 339.295 706.177 339.295Z" fill="#3F3D56"/>
<path d="M706.177 385.41C706.007 385.41 705.842 385.378 705.701 385.317C705.56 385.256 705.45 385.17 705.385 385.068C705.32 384.967 705.303 384.856 705.336 384.749C705.369 384.641 705.451 384.543 705.571 384.465L774.623 339.856C774.702 339.804 774.797 339.763 774.901 339.734C775.005 339.706 775.117 339.691 775.23 339.691C775.343 339.691 775.454 339.705 775.559 339.733C775.663 339.761 775.758 339.802 775.838 339.853C775.918 339.905 775.981 339.966 776.024 340.034C776.067 340.101 776.089 340.173 776.089 340.246C776.089 340.319 776.066 340.392 776.022 340.459C775.979 340.526 775.915 340.587 775.834 340.638L706.782 385.248C706.703 385.299 706.608 385.34 706.504 385.368C706.401 385.396 706.289 385.41 706.177 385.41Z" fill="#3F3D56"/>
<path d="M800.503 408.587C800.503 381.878 834.041 318.499 875.413 318.499C916.784 318.499 950.322 381.878 950.322 408.587C950.309 421.416 942.411 433.717 928.364 442.785C914.317 451.854 895.271 456.948 875.413 456.948C855.554 456.948 836.508 451.854 822.461 442.785C808.414 433.717 800.516 421.416 800.503 408.587Z" fill="#E6E6E6"/>
<path d="M875.413 526.244C875.332 526.244 875.252 526.233 875.177 526.213C875.102 526.193 875.034 526.164 874.977 526.127C874.92 526.09 874.875 526.046 874.844 525.998C874.813 525.95 874.797 525.898 874.797 525.846V359.113C874.797 359.008 874.862 358.907 874.978 358.833C875.093 358.759 875.25 358.717 875.413 358.717C875.576 358.717 875.732 358.759 875.847 358.833C875.963 358.907 876.028 359.008 876.029 359.113V525.846C876.029 525.898 876.013 525.95 875.982 525.998C875.951 526.046 875.905 526.09 875.848 526.127C875.791 526.164 875.723 526.193 875.648 526.213C875.574 526.233 875.493 526.244 875.413 526.244Z" fill="#3F3D56"/>
<path d="M875.413 391.302C875.332 391.302 875.252 391.292 875.177 391.272C875.102 391.252 875.034 391.223 874.977 391.186L845.328 372.045C845.212 371.97 845.148 371.869 845.148 371.763C845.148 371.658 845.213 371.557 845.328 371.482C845.444 371.408 845.6 371.366 845.764 371.366C845.927 371.366 846.084 371.408 846.199 371.482L875.848 390.624C875.934 390.679 875.993 390.75 876.017 390.827C876.04 390.904 876.028 390.984 875.982 391.057C875.935 391.13 875.856 391.192 875.755 391.235C875.653 391.279 875.534 391.302 875.413 391.302Z" fill="#3F3D56"/>
<path d="M875.413 424.439C875.291 424.439 875.172 424.416 875.07 424.372C874.969 424.329 874.89 424.267 874.844 424.194C874.797 424.121 874.785 424.041 874.809 423.964C874.832 423.887 874.891 423.816 874.977 423.761L924.63 391.705C924.687 391.668 924.755 391.639 924.83 391.619C924.904 391.599 924.984 391.588 925.065 391.588C925.146 391.588 925.226 391.599 925.301 391.619C925.376 391.639 925.444 391.668 925.501 391.705C925.558 391.742 925.603 391.786 925.634 391.834C925.665 391.882 925.681 391.934 925.681 391.986C925.681 392.038 925.665 392.09 925.635 392.138C925.604 392.187 925.558 392.23 925.501 392.267L875.848 424.323C875.791 424.36 875.723 424.389 875.648 424.409C875.574 424.429 875.493 424.439 875.413 424.439Z" fill="#3F3D56"/>
<path d="M879.884 523.055C878.816 523.054 877.768 522.871 876.844 522.525C875.921 522.178 875.156 521.681 874.626 521.082C874.095 520.483 873.819 519.805 873.825 519.115C873.831 518.425 874.118 517.749 874.658 517.154L883.151 507.786L893.624 511.749L885.13 521.117C884.594 521.708 883.827 522.197 882.907 522.537C881.986 522.877 880.944 523.056 879.884 523.055Z" fill="#F9A447"/>
<path d="M913.213 501.645C917.338 501.645 920.681 499.484 920.681 496.82C920.681 494.155 917.338 491.995 913.213 491.995C909.088 491.995 905.744 494.155 905.744 496.82C905.744 499.484 909.088 501.645 913.213 501.645Z" fill="#F9A447"/>
<path d="M847.023 523.055C845.955 523.054 844.907 522.871 843.983 522.525C843.06 522.178 842.295 521.681 841.764 521.082C841.234 520.483 840.958 519.805 840.964 519.115C840.969 518.425 841.257 517.749 841.797 517.154L850.29 507.786L860.762 511.749L852.269 521.117C851.733 521.708 850.966 522.197 850.046 522.537C849.125 522.877 848.083 523.056 847.023 523.055Z" fill="#F9A447"/>
<path d="M895.922 516.793H858.29C853.168 516.79 848.258 515.474 844.637 513.134C841.015 510.795 838.978 507.623 838.973 504.314V500.621C838.975 499.472 839.682 498.37 840.94 497.558C842.197 496.745 843.902 496.288 845.681 496.287H895.922C900.132 496.287 904.169 497.367 907.145 499.29C910.121 501.213 911.794 503.821 911.794 506.54C911.794 509.26 910.121 511.868 907.145 513.79C904.169 515.713 900.132 516.793 895.922 516.793Z" fill="#3F3D56"/>
<path d="M894.139 526.245C892.53 526.244 890.988 525.831 889.85 525.096C888.712 524.361 888.072 523.364 888.071 522.325V511.468H900.207V522.325C900.206 523.364 899.566 524.361 898.428 525.096C897.29 525.831 895.748 526.244 894.139 526.245Z" fill="#3F3D56"/>
<path d="M858.921 526.245C857.312 526.244 855.77 525.831 854.632 525.096C853.495 524.361 852.855 523.364 852.853 522.325V511.468H864.99V522.325C864.988 523.364 864.348 524.361 863.21 525.096C862.073 525.831 860.53 526.244 858.921 526.245Z" fill="#3F3D56"/>
<path d="M827.887 489.247L816.24 495.29L803.963 485.415C802.729 484.417 802.158 483.143 802.375 481.873C802.592 480.604 803.58 479.441 805.122 478.641C806.664 477.842 808.634 477.469 810.6 477.606C812.566 477.743 814.367 478.378 815.61 479.372L827.887 489.247Z" fill="#F9A447"/>
<path d="M844.356 503.717L825.094 513.711C823.98 514.288 822.557 514.556 821.137 514.456C819.718 514.356 818.418 513.896 817.523 513.177L809.419 506.659C806.576 504.367 805.256 501.439 805.75 498.519C806.243 495.599 808.51 492.925 812.052 491.083L815.125 489.488C818.101 487.948 821.901 487.232 825.693 487.5C829.484 487.767 832.956 488.995 835.348 490.914L845.183 498.826C846.076 499.546 846.49 500.465 846.335 501.382C846.18 502.299 845.469 503.138 844.356 503.717Z" fill="#3F3D56"/>
<path d="M827.887 489.247L819.88 493.402L806.141 482.351C805.288 481.665 804.892 480.788 805.04 479.914C805.188 479.039 805.868 478.238 806.929 477.687C807.991 477.137 809.348 476.881 810.702 476.976C812.056 477.072 813.295 477.511 814.148 478.197L827.887 489.247Z" fill="#3F3D56"/>
<path d="M843.183 504.192L822.074 515.145C820.529 515.942 818.558 516.312 816.592 516.171C814.626 516.031 812.827 515.393 811.588 514.397C810.35 513.401 809.773 512.128 809.986 510.858C810.198 509.587 811.181 508.423 812.72 507.621L833.829 496.668L843.183 504.192Z" fill="#3F3D56"/>
<path d="M814.008 515.641C814.762 515.249 814.49 514.222 813.4 513.345C812.31 512.469 810.816 512.075 810.062 512.466C809.308 512.857 809.581 513.885 810.67 514.762C811.76 515.638 813.254 516.032 814.008 515.641Z" fill="#F9A447"/>
<path d="M754.108 519.846C754.108 521.387 753.16 522.865 751.473 523.955C749.786 525.045 747.499 525.657 745.113 525.657C740.146 525.657 739.973 522.752 743.828 519.846C739.973 518.186 740.146 514.036 745.113 514.036C747.499 514.036 749.786 514.648 751.473 515.737C753.16 516.827 754.108 518.305 754.108 519.846Z" fill="#CCCCCC"/>
<path d="M779.806 519.846C779.806 521.387 780.754 522.865 782.441 523.955C784.127 525.045 786.415 525.657 788.801 525.657C793.768 525.657 793.94 522.752 790.086 519.846C793.94 518.186 793.768 514.036 788.801 514.036C786.415 514.036 784.127 514.648 782.441 515.737C780.754 516.827 779.806 518.305 779.806 519.846Z" fill="#CCCCCC"/>
<path d="M784.946 516.941H748.968V522.752H784.946V516.941Z" fill="#CCCCCC"/>
<path d="M1271.14 526.764H632.106C631.879 526.764 631.661 526.705 631.5 526.602C631.34 526.498 631.249 526.357 631.249 526.21C631.249 526.063 631.34 525.923 631.5 525.819C631.661 525.715 631.879 525.657 632.106 525.657H1271.14C1271.37 525.657 1271.59 525.715 1271.75 525.819C1271.91 525.923 1272 526.063 1272 526.21C1272 526.357 1271.91 526.498 1271.75 526.602C1271.59 526.705 1271.37 526.764 1271.14 526.764Z" fill="#3F3D56"/>
<path d="M1119.8 416.992C1126.8 416.992 1132.48 413.325 1132.48 408.802C1132.48 404.279 1126.8 400.612 1119.8 400.612C1112.8 400.612 1107.12 404.279 1107.12 408.802C1107.12 413.325 1112.8 416.992 1119.8 416.992Z" fill="#A0616A"/>
<path d="M1118.98 454.717C1118.74 454.225 1118.66 453.705 1118.74 453.192C1118.83 452.678 1119.09 452.182 1119.49 451.736C1119.9 451.291 1120.45 450.906 1121.1 450.606C1121.75 450.307 1122.49 450.1 1123.28 449.998C1123.53 449.967 1123.78 449.947 1124.03 449.938L1137.39 436.092L1125.19 428.6C1124.72 428.314 1124.35 427.971 1124.09 427.591C1123.83 427.211 1123.69 426.801 1123.67 426.386C1123.66 425.97 1123.77 425.557 1124.01 425.171C1124.24 424.784 1124.6 424.431 1125.04 424.133C1125.49 423.834 1126.02 423.596 1126.62 423.432C1127.21 423.267 1127.84 423.18 1128.48 423.175C1129.13 423.171 1129.77 423.248 1130.36 423.403C1130.96 423.559 1131.5 423.789 1131.96 424.081L1148.8 434.809L1148.84 434.836C1149.36 435.348 1149.61 435.955 1149.55 436.567C1149.5 437.179 1149.14 437.763 1148.53 438.232L1129.82 452.529C1129.87 452.644 1129.92 452.76 1129.96 452.878C1130.11 453.385 1130.1 453.907 1129.92 454.411C1129.75 454.915 1129.41 455.389 1128.92 455.802C1128.44 456.215 1127.83 456.558 1127.13 456.807C1126.43 457.057 1125.66 457.209 1124.86 457.252C1124.7 457.261 1124.54 457.265 1124.38 457.265C1123.18 457.262 1122.01 457.014 1121.04 456.556C1120.07 456.099 1119.35 455.455 1118.98 454.717Z" fill="#A0616A"/>
<path d="M1098.92 522.789H1092.59L1089.58 507.02L1098.92 507.021L1098.92 522.789Z" fill="#A0616A"/>
<path d="M1100.79 526.919L1079.87 526.919V526.585C1079.87 525.89 1080.08 525.201 1080.5 524.558C1080.91 523.915 1081.51 523.331 1082.27 522.84C1083.03 522.348 1083.94 521.957 1084.93 521.691C1085.93 521.425 1086.99 521.288 1088.07 521.288L1100.79 521.288L1100.79 526.919Z" fill="#2F2E41"/>
<path d="M1161.82 517.137L1156.38 519.229L1141.31 506.675L1149.33 503.588L1161.82 517.137Z" fill="#A0616A"/>
<path d="M1148.72 526.981L1148.46 526.695C1147.35 525.487 1147.02 524.044 1147.56 522.682C1148.09 521.32 1149.44 520.151 1151.31 519.432L1162.24 515.228L1166.7 520.067L1148.72 526.981Z" fill="#2F2E41"/>
<path d="M1088.78 515.845C1084.54 483.597 1082.02 453.639 1097.52 441.418L1097.64 441.323L1123.72 448.063L1123.76 448.123C1123.85 448.247 1132.52 460.572 1130.5 468.863L1136.93 487.98L1157.91 510.669C1158.08 510.852 1158.18 511.055 1158.22 511.267C1158.26 511.478 1158.23 511.692 1158.13 511.895C1158.03 512.098 1157.86 512.284 1157.64 512.442C1157.42 512.601 1157.15 512.727 1156.85 512.812L1147.74 515.403C1147.22 515.548 1146.64 515.568 1146.11 515.46C1145.57 515.352 1145.12 515.123 1144.82 514.814L1122 490.778L1109.11 472.342C1109.04 472.242 1108.93 472.16 1108.78 472.108C1108.63 472.056 1108.45 472.037 1108.29 472.055C1108.12 472.072 1107.96 472.125 1107.85 472.204C1107.73 472.284 1107.66 472.386 1107.64 472.495L1100.5 515.878C1100.44 516.247 1100.17 516.588 1099.74 516.836C1099.31 517.084 1098.76 517.221 1098.19 517.22H1091.1C1090.52 517.218 1089.96 517.076 1089.53 516.822C1089.1 516.567 1088.84 516.219 1088.78 515.845Z" fill="#2F2E41"/>
<path d="M1097.61 441.674L1097.48 441.635L1097.46 441.547C1096.49 437.142 1097.64 432.248 1100.89 427C1102.49 424.431 1105.47 422.32 1109.28 421.05C1113.09 419.781 1117.47 419.437 1121.64 420.083C1124.04 420.465 1126.3 421.165 1128.26 422.139C1130.22 423.113 1131.84 424.339 1133.03 425.739C1134.2 427.126 1134.92 428.655 1135.13 430.229C1135.34 431.803 1135.04 433.389 1134.25 434.885C1130.16 442.621 1124.85 449.86 1124.79 449.932L1124.68 450.083L1097.61 441.674Z" fill="#F9A447"/>
<path d="M1078.84 459.943C1078.66 459.053 1078.98 458.151 1079.75 457.402C1080.51 456.652 1081.66 456.104 1083 455.857L1107.39 425.61C1107.71 425.27 1108.13 424.975 1108.63 424.741C1109.12 424.506 1109.69 424.338 1110.29 424.245C1110.89 424.153 1111.51 424.137 1112.12 424.2C1112.72 424.263 1113.31 424.403 1113.83 424.612C1114.35 424.821 1114.81 425.095 1115.17 425.418C1115.53 425.741 1115.79 426.107 1115.93 426.494C1116.07 426.882 1116.09 427.283 1115.99 427.676C1115.88 428.068 1115.66 428.444 1115.34 428.781L1090.37 458.818C1090.43 459.001 1090.46 459.186 1090.47 459.372C1090.49 459.879 1090.35 460.385 1090.06 460.858C1089.77 461.33 1089.34 461.76 1088.79 462.122C1088.23 462.484 1087.57 462.769 1086.85 462.962C1086.12 463.155 1085.34 463.251 1084.55 463.244C1083.69 463.236 1082.84 463.104 1082.07 462.859C1081.29 462.614 1080.61 462.262 1080.07 461.826C1079.4 461.285 1078.97 460.633 1078.84 459.943Z" fill="#A0616A"/>
<path d="M1104.43 404.176H1124.56V398.507C1120.14 397.373 1115.82 396.408 1113.2 398.507C1110.88 398.507 1108.65 399.104 1107 400.167C1105.35 401.23 1104.43 402.672 1104.43 404.176Z" fill="#2F2E41"/>
<path d="M1125.67 397.506C1137.71 397.506 1141.08 407.252 1141.08 412.749C1141.08 415.816 1138.93 416.912 1135.56 417.283L1134.37 413.179L1131.58 417.46C1130.63 417.463 1129.64 417.451 1128.6 417.439L1127.66 416.18L1125.55 417.416C1117.1 417.424 1110.27 418.22 1110.27 412.749C1110.27 407.252 1113.23 397.506 1125.67 397.506Z" fill="#2F2E41"/>
</g>
<g clip-path="url(#clip3_0_3)">
<path d="M1951.65 443.136C1951.65 424.258 1979.17 379.461 2013.13 379.461C2047.09 379.461 2074.62 424.258 2074.62 443.136C2074.6 452.204 2068.12 460.897 2056.59 467.306C2045.06 473.716 2029.43 477.316 2013.13 477.316C1996.83 477.316 1981.2 473.716 1969.67 467.306C1958.14 460.897 1951.66 452.204 1951.65 443.136Z" fill="#F2F2F2"/>
<path d="M2013.13 526.297C2013.07 526.297 2013 526.29 2012.94 526.276C2012.88 526.262 2012.82 526.241 2012.77 526.215C2012.73 526.189 2012.69 526.158 2012.66 526.124C2012.64 526.089 2012.63 526.053 2012.63 526.016V408.168C2012.63 408.094 2012.68 408.022 2012.77 407.97C2012.87 407.917 2013 407.888 2013.13 407.888C2013.27 407.888 2013.39 407.917 2013.49 407.97C2013.58 408.022 2013.64 408.094 2013.64 408.168V526.016C2013.64 526.053 2013.62 526.089 2013.6 526.124C2013.57 526.158 2013.54 526.189 2013.49 526.215C2013.44 526.241 2013.39 526.262 2013.32 526.276C2013.26 526.29 2013.2 526.297 2013.13 526.297Z" fill="#3F3D56"/>
<path d="M2013.13 430.919C2013.07 430.919 2013 430.912 2012.94 430.898C2012.88 430.884 2012.82 430.863 2012.77 430.837L1988.44 417.308C1988.34 417.255 1988.29 417.184 1988.29 417.109C1988.29 417.035 1988.34 416.963 1988.44 416.911C1988.53 416.858 1988.66 416.828 1988.8 416.828C1988.93 416.828 1989.06 416.858 1989.15 416.911L2013.49 430.44C2013.56 430.479 2013.61 430.529 2013.63 430.584C2013.65 430.638 2013.64 430.695 2013.6 430.746C2013.56 430.797 2013.5 430.841 2013.41 430.872C2013.33 430.903 2013.23 430.919 2013.13 430.919Z" fill="#3F3D56"/>
<path d="M2013.13 454.341C2013.03 454.341 2012.93 454.324 2012.85 454.294C2012.77 454.263 2012.7 454.219 2012.66 454.167C2012.63 454.116 2012.62 454.06 2012.64 454.005C2012.66 453.951 2012.7 453.9 2012.77 453.861L2053.53 431.204C2053.62 431.151 2053.75 431.122 2053.89 431.122C2054.02 431.122 2054.15 431.152 2054.24 431.204C2054.34 431.257 2054.39 431.328 2054.39 431.403C2054.39 431.477 2054.34 431.549 2054.24 431.601L2013.49 454.259C2013.44 454.285 2013.39 454.305 2013.33 454.32C2013.26 454.334 2013.2 454.341 2013.13 454.341Z" fill="#3F3D56"/>
<path d="M1847.03 423.176C1847.03 399.767 1881.16 344.218 1923.27 344.218C1965.37 344.218 1999.51 399.767 1999.51 423.176C1999.49 434.42 1991.45 445.2 1977.16 453.148C1962.86 461.095 1943.48 465.559 1923.27 465.559C1903.06 465.559 1883.67 461.095 1869.38 453.148C1855.08 445.2 1847.04 434.42 1847.03 423.176Z" fill="#E6E6E6"/>
<path d="M1923.27 526.297C1923.18 526.297 1923.1 526.288 1923.03 526.271C1922.95 526.253 1922.88 526.227 1922.82 526.195C1922.77 526.163 1922.72 526.124 1922.69 526.082C1922.66 526.04 1922.64 525.994 1922.64 525.949V379.815C1922.64 379.723 1922.71 379.635 1922.82 379.569C1922.94 379.504 1923.1 379.468 1923.27 379.468C1923.43 379.468 1923.59 379.504 1923.71 379.569C1923.83 379.635 1923.89 379.723 1923.89 379.815V525.949C1923.89 525.994 1923.88 526.04 1923.85 526.082C1923.81 526.124 1923.77 526.163 1923.71 526.195C1923.65 526.227 1923.58 526.253 1923.51 526.271C1923.43 526.288 1923.35 526.297 1923.27 526.297Z" fill="#3F3D56"/>
<path d="M1923.27 408.027C1923.18 408.027 1923.1 408.018 1923.03 408.001C1922.95 407.983 1922.88 407.958 1922.82 407.925L1892.65 391.149C1892.59 391.117 1892.54 391.078 1892.51 391.036C1892.48 390.993 1892.46 390.948 1892.46 390.902C1892.46 390.81 1892.53 390.721 1892.65 390.656C1892.77 390.59 1892.92 390.554 1893.09 390.554C1893.26 390.554 1893.42 390.591 1893.53 390.656L1923.71 407.432C1923.8 407.481 1923.86 407.543 1923.88 407.611C1923.91 407.678 1923.89 407.749 1923.85 407.812C1923.8 407.876 1923.72 407.93 1923.62 407.969C1923.51 408.007 1923.39 408.027 1923.27 408.027Z" fill="#3F3D56"/>
<path d="M1923.27 437.07C1923.14 437.07 1923.02 437.05 1922.92 437.012C1922.82 436.973 1922.74 436.919 1922.69 436.855C1922.64 436.792 1922.63 436.722 1922.65 436.654C1922.68 436.586 1922.74 436.524 1922.82 436.475L1973.36 408.38C1973.48 408.315 1973.64 408.278 1973.8 408.278C1973.97 408.278 1974.13 408.315 1974.25 408.38C1974.36 408.445 1974.43 408.534 1974.43 408.627C1974.43 408.719 1974.36 408.808 1974.25 408.873L1923.71 436.968C1923.65 437.001 1923.58 437.026 1923.51 437.044C1923.43 437.061 1923.35 437.07 1923.27 437.07Z" fill="#3F3D56"/>
<path d="M1747 382.791C1747 350.214 1794.47 272.91 1853.03 272.91C1911.59 272.91 1959.06 350.214 1959.06 382.791C1959.06 398.435 1947.89 413.438 1928 424.5C1908.12 435.562 1881.15 441.777 1853.03 441.777C1824.91 441.777 1797.94 435.562 1778.06 424.5C1758.17 413.438 1747 398.435 1747 382.791Z" fill="#F9A447"/>
<path d="M1853.03 526.297C1852.8 526.297 1852.58 526.246 1852.41 526.155C1852.25 526.064 1852.16 525.941 1852.16 525.812V322.448C1852.16 322.319 1852.25 322.196 1852.41 322.105C1852.58 322.014 1852.8 321.963 1853.03 321.963C1853.26 321.963 1853.48 322.014 1853.65 322.105C1853.81 322.196 1853.9 322.319 1853.9 322.448V525.812C1853.9 525.941 1853.81 526.064 1853.65 526.155C1853.48 526.246 1853.26 526.297 1853.03 526.297Z" fill="#3F3D56"/>
<path d="M1853.03 361.709C1852.91 361.709 1852.8 361.696 1852.69 361.672C1852.59 361.647 1852.49 361.612 1852.41 361.567L1810.45 338.22C1810.28 338.129 1810.19 338.006 1810.2 337.878C1810.2 337.75 1810.29 337.627 1810.45 337.537C1810.61 337.446 1810.83 337.395 1811.06 337.395C1811.29 337.394 1811.52 337.444 1811.68 337.534L1853.65 360.881C1853.77 360.949 1853.85 361.035 1853.88 361.129C1853.92 361.223 1853.9 361.321 1853.83 361.409C1853.77 361.498 1853.66 361.574 1853.51 361.627C1853.37 361.68 1853.2 361.709 1853.03 361.709Z" fill="#3F3D56"/>
<path d="M1853.03 402.126C1852.86 402.126 1852.69 402.098 1852.54 402.044C1852.4 401.991 1852.29 401.915 1852.22 401.827C1852.16 401.738 1852.14 401.641 1852.17 401.546C1852.21 401.452 1852.29 401.366 1852.41 401.298L1922.69 362.2C1922.77 362.154 1922.87 362.118 1922.97 362.093C1923.08 362.069 1923.19 362.056 1923.31 362.056C1923.42 362.055 1923.54 362.068 1923.64 362.092C1923.75 362.117 1923.85 362.152 1923.93 362.198C1924.01 362.243 1924.07 362.297 1924.12 362.356C1924.16 362.415 1924.18 362.478 1924.18 362.542C1924.18 362.606 1924.16 362.669 1924.12 362.728C1924.07 362.787 1924.01 362.841 1923.92 362.886L1853.65 401.984C1853.56 402.029 1853.47 402.065 1853.36 402.089C1853.26 402.114 1853.14 402.126 1853.03 402.126Z" fill="#3F3D56"/>
<path d="M2412.13 526.658H1764.35C1764.11 526.658 1763.89 526.607 1763.73 526.516C1763.57 526.425 1763.47 526.301 1763.47 526.173C1763.47 526.044 1763.57 525.921 1763.73 525.83C1763.89 525.739 1764.11 525.688 1764.35 525.688H2412.13C2412.36 525.688 2412.58 525.739 2412.74 525.83C2412.91 525.921 2413 526.044 2413 526.173C2413 526.301 2412.91 526.425 2412.74 526.516C2412.58 526.607 2412.36 526.658 2412.13 526.658Z" fill="#3F3D56"/>
<path d="M2360.72 488.26C2361.02 488.26 2361.32 488.227 2361.6 488.163C2361.87 488.099 2362.13 488.006 2362.34 487.888C2362.55 487.77 2362.72 487.63 2362.83 487.476C2362.95 487.322 2363.01 487.157 2363.01 486.99C2363.01 486.824 2362.95 486.659 2362.83 486.505C2362.72 486.351 2362.55 486.211 2362.34 486.093C2362.13 485.975 2361.87 485.882 2361.6 485.818C2361.32 485.754 2361.02 485.721 2360.72 485.721H2339.05V480.645H2360.72C2361.33 480.645 2361.91 480.511 2362.34 480.273C2362.77 480.035 2363.01 479.712 2363.01 479.376C2363.01 479.039 2362.77 478.716 2362.34 478.478C2361.91 478.24 2361.33 478.107 2360.72 478.107H2175.94C2175.34 478.107 2174.76 478.24 2174.33 478.478C2173.9 478.716 2173.66 479.039 2173.66 479.376C2173.66 479.712 2173.9 480.035 2174.33 480.273C2174.76 480.511 2175.34 480.645 2175.94 480.645H2197.61V485.721H2175.94C2175.34 485.721 2174.76 485.855 2174.33 486.093C2173.9 486.331 2173.66 486.654 2173.66 486.99C2173.66 487.327 2173.9 487.65 2174.33 487.888C2174.76 488.126 2175.34 488.26 2175.94 488.26H2197.61V493.336H2175.94C2175.34 493.336 2174.76 493.47 2174.33 493.708C2173.9 493.946 2173.66 494.269 2173.66 494.605C2173.66 494.942 2173.9 495.265 2174.33 495.503C2174.76 495.741 2175.34 495.874 2175.94 495.874H2197.61V500.951H2178.22C2177.01 500.952 2175.86 501.22 2175 501.695C2174.15 502.171 2173.67 502.816 2173.67 503.489C2173.67 504.162 2174.15 504.807 2175 505.283C2175.86 505.758 2177.01 506.026 2178.22 506.027H2196.68C2196.55 506.231 2196.48 506.445 2196.47 506.662V524.429C2196.47 524.934 2196.83 525.419 2197.48 525.776C2198.12 526.133 2198.99 526.333 2199.9 526.333C2200.8 526.333 2201.67 526.133 2202.32 525.776C2202.96 525.419 2203.32 524.934 2203.32 524.429V506.662C2203.31 506.445 2203.24 506.231 2203.11 506.027H2333.56C2333.42 506.231 2333.35 506.445 2333.35 506.662V524.429C2333.35 524.934 2333.71 525.419 2334.35 525.776C2334.99 526.133 2335.86 526.333 2336.77 526.333C2337.68 526.333 2338.55 526.133 2339.19 525.776C2339.83 525.419 2340.19 524.934 2340.19 524.429V506.662C2340.19 506.445 2340.12 506.231 2339.98 506.027H2358.44C2359.04 506.028 2359.64 505.962 2360.19 505.835C2360.75 505.708 2361.25 505.521 2361.67 505.285C2362.1 505.049 2362.43 504.769 2362.66 504.461C2362.89 504.153 2363.01 503.823 2363.01 503.489C2363.01 503.155 2362.89 502.825 2362.66 502.517C2362.43 502.209 2362.1 501.929 2361.67 501.693C2361.25 501.457 2360.75 501.27 2360.19 501.143C2359.64 501.016 2359.04 500.95 2358.44 500.951H2339.05V495.874H2360.72C2361.02 495.875 2361.32 495.842 2361.6 495.778C2361.88 495.715 2362.13 495.621 2362.34 495.503C2362.55 495.386 2362.72 495.246 2362.84 495.091C2362.95 494.937 2363.01 494.772 2363.01 494.605C2363.01 494.438 2362.95 494.273 2362.84 494.119C2362.72 493.965 2362.55 493.825 2362.34 493.707C2362.13 493.589 2361.88 493.496 2361.6 493.432C2361.32 493.368 2361.02 493.336 2360.72 493.336H2339.05V488.26H2360.72ZM2202.18 480.645H2334.49V485.721H2202.18V480.645ZM2334.49 500.951H2202.18V495.874H2334.49V500.951ZM2334.49 493.336H2202.18V488.26H2334.49V493.336Z" fill="#3F3D56"/>
<path d="M2024.49 504.94C2024.65 504.356 2024.57 503.76 2024.27 503.195C2023.96 502.63 2023.44 502.108 2022.73 501.668C2022.03 501.227 2021.16 500.878 2020.18 500.645C2019.21 500.411 2018.16 500.3 2017.1 500.318L1970.62 474.179L1961.44 481.318L2010.01 504.767C2010.18 505.756 2011 506.676 2012.31 507.351C2013.62 508.027 2015.33 508.412 2017.11 508.433C2018.9 508.454 2020.64 508.11 2022 507.467C2023.36 506.823 2024.25 505.924 2024.49 504.94Z" fill="#FFB8B8"/>
<path d="M1998.99 491.786L1990.62 496.438C1990.05 496.751 1989.29 496.928 1988.49 496.93C1987.68 496.932 1986.91 496.758 1986.34 496.447L1953.93 478.72C1952.81 478.107 1951.92 477.377 1951.31 476.571C1950.7 475.765 1950.38 474.9 1950.38 474.026C1950.37 473.152 1950.68 472.285 1951.28 471.477C1951.88 470.669 1952.76 469.936 1953.87 469.318C1954.99 468.701 1956.31 468.213 1957.76 467.882C1959.22 467.551 1960.78 467.384 1962.35 467.39C1963.92 467.396 1965.47 467.575 1966.92 467.917C1968.37 468.259 1969.68 468.758 1970.77 469.383L1999.02 489.409C1999.58 489.728 1999.89 490.156 1999.88 490.601C1999.88 491.045 1999.56 491.471 1998.99 491.786Z" fill="#F9A447"/>
<path d="M1960.88 455.553C1970.05 455.553 1977.47 451.421 1977.47 446.324C1977.47 441.227 1970.05 437.095 1960.88 437.095C1951.72 437.095 1944.3 441.227 1944.3 446.324C1944.3 451.421 1951.72 455.553 1960.88 455.553Z" fill="#FFB8B8"/>
<path d="M1904.83 558.855L1909.03 562.824L1938.55 555.701L1932.36 549.842L1904.83 558.855Z" fill="#FFB8B8"/>
<path d="M1906.09 557.079L1914.36 564.897C1915.05 565.552 1915.51 566.276 1915.7 567.028C1915.89 567.779 1915.81 568.545 1915.47 569.28C1915.12 570.015 1914.52 570.705 1913.7 571.311C1912.88 571.917 1911.85 572.428 1910.68 572.813L1910.39 572.908L1896.84 560.107L1906.09 557.079Z" fill="#2F2E41"/>
<path d="M1953.5 573.157H1961.78L1965.72 555.388L1953.5 555.389L1953.5 573.157Z" fill="#FFB8B8"/>
<path d="M1951.39 571.653L1967.69 571.652C1969.06 571.652 1970.41 571.802 1971.67 572.092C1972.93 572.383 1974.08 572.809 1975.04 573.345C1976.01 573.882 1976.77 574.52 1977.3 575.221C1977.82 575.922 1978.09 576.674 1978.09 577.434V577.621L1951.39 577.622L1951.39 571.653Z" fill="#2F2E41"/>
<path d="M1920.21 562.391C1919.73 562.392 1919.26 562.329 1918.84 562.21C1918.41 562.09 1918.04 561.916 1917.76 561.703L1909.78 555.669C1909.53 555.485 1909.36 555.275 1909.26 555.053C1909.17 554.83 1909.16 554.599 1909.23 554.374C1909.3 554.149 1909.45 553.934 1909.68 553.743C1909.9 553.551 1910.19 553.387 1910.54 553.26L1946.07 540.056L1924.63 508.691L1970.48 510.796L1972.03 537.749C1972.17 540.204 1971.11 542.634 1968.97 544.78C1966.82 546.926 1963.66 548.707 1959.84 549.932L1921.73 562.164C1921.27 562.313 1920.74 562.391 1920.21 562.391Z" fill="#2F2E41"/>
<path d="M1953.75 569.549C1952.96 569.548 1952.21 569.378 1951.64 569.074C1951.08 568.77 1950.75 568.356 1950.72 567.919L1949.04 541.661L1969.84 541.051L1968.19 567.497C1968.16 567.916 1967.86 568.315 1967.34 568.616C1966.81 568.917 1966.1 569.099 1965.35 569.125L1953.96 569.546C1953.89 569.548 1953.82 569.549 1953.75 569.549Z" fill="#2F2E41"/>
<path d="M1968.81 516.01C1963.52 516.01 1952 512.698 1945.58 511.517C1944.62 511.944 1939.35 514.139 1933.19 513.738C1929.39 513.49 1926.04 512.293 1923.25 510.181C1917.07 505.517 1929.53 488.273 1937.02 472.314C1940.17 465.6 1947.36 458.731 1959.56 460.205C1963.8 460.726 1967.7 461.894 1970.81 463.578C1973.92 465.263 1976.13 467.397 1977.18 469.741C1978.59 472.934 1977.38 476.69 1976.49 479.432C1976.1 480.353 1975.89 481.295 1975.86 482.241C1976.29 484.176 1971.73 514.514 1970.18 515.81C1970.02 515.948 1969.54 516.01 1968.81 516.01Z" fill="#F9A447"/>
<path d="M1956.42 516.064C1957.27 515.712 1957.97 515.26 1958.48 514.74C1958.98 514.221 1959.27 513.646 1959.33 513.057C1959.39 512.468 1959.22 511.878 1958.83 511.33C1958.43 510.782 1957.83 510.289 1957.06 509.885L1957.39 473.12L1941.82 474.562L1946.39 510.247C1945.26 511.014 1944.67 511.987 1944.74 512.979C1944.81 513.972 1945.53 514.917 1946.76 515.634C1948 516.351 1949.66 516.79 1951.44 516.87C1953.23 516.949 1955 516.662 1956.42 516.064Z" fill="#FFB8B8"/>
<path d="M1960.02 496.731H1943.26C1942.46 496.729 1941.69 496.553 1941.12 496.239C1940.55 495.926 1940.23 495.5 1940.22 495.055L1939.81 469.771C1939.79 468.896 1940.09 468.029 1940.68 467.219C1941.27 466.409 1942.15 465.673 1943.25 465.052C1944.36 464.431 1945.68 463.939 1947.13 463.603C1948.58 463.268 1950.14 463.095 1951.71 463.097C1953.28 463.098 1954.84 463.272 1956.29 463.61C1957.74 463.947 1959.05 464.441 1960.15 465.064C1961.26 465.686 1962.13 466.424 1962.72 467.234C1963.31 468.045 1963.6 468.912 1963.58 469.787L1963.06 495.059C1963.05 495.504 1962.72 495.928 1962.15 496.241C1961.59 496.553 1960.82 496.729 1960.02 496.731Z" fill="#F9A447"/>
<path d="M1956.66 455.514C1952.85 455.462 1949.19 454.692 1946.27 453.331C1943.35 451.97 1941.34 450.098 1940.58 448.021C1940.11 446.386 1940.32 444.713 1941.2 443.131C1942.16 441.33 1943.8 439.664 1946.01 438.246C1948.22 436.827 1950.95 435.688 1954.02 434.907C1957.09 434.125 1960.42 433.718 1963.79 433.714C1967.17 433.71 1970.51 434.108 1973.58 434.882C1975.61 435.394 1977.61 436.128 1978.54 437.256C1979.47 438.384 1978.89 439.959 1976.86 440.467C1975.53 440.798 1973.86 440.636 1972.68 441.112C1970.98 441.795 1971.42 443.25 1972.18 444.336C1972.93 445.422 1973.79 446.736 1972.52 447.662C1971.34 448.525 1968.97 448.499 1967.11 448.174C1965.25 447.849 1963.42 447.305 1961.47 447.415C1958.64 447.577 1956.61 449.143 1956.23 450.712C1955.86 452.281 1956.74 453.849 1957.62 455.355L1956.66 455.514Z" fill="#2F2E41"/>
<path d="M2019.07 504.726C2029.84 503.371 2042.05 508.06 2042.43 514.355C2042.53 516.126 2041.6 517.986 2039.15 519.19C2038.14 519.707 2036.9 520.072 2035.57 520.249C2034.23 520.425 2032.83 520.409 2031.51 520.2C2026.48 519.265 2026.21 515.366 2028.91 513.283C2032.56 510.463 2039.8 509.982 2045.54 510.317C2052.58 510.814 2059.25 512.359 2064.84 514.787C2076.05 519.487 2083.19 526.69 2088.97 533.65C2094.88 540.789 2099.18 548.308 2101.77 556.036C2102.1 557.007 2102.39 557.98 2102.67 558.956C2102.74 559.099 2102.92 559.219 2103.15 559.291C2103.39 559.363 2103.66 559.38 2103.92 559.339C2104.18 559.294 2104.39 559.197 2104.52 559.067C2104.65 558.937 2104.68 558.784 2104.61 558.641C2102.25 550.208 2097.88 541.987 2091.62 534.194C2085.57 526.652 2077.94 518.829 2065.81 513.795C2059.79 511.217 2052.61 509.615 2045.06 509.167C2038.7 508.852 2031.16 509.601 2027.2 512.68C2024.08 515.109 2024.4 519.146 2029.23 520.838C2030.56 521.26 2032.07 521.49 2033.6 521.507C2035.14 521.524 2036.65 521.328 2038.02 520.936C2039.48 520.534 2040.77 519.96 2041.79 519.253C2042.82 518.547 2043.55 517.725 2043.95 516.844C2045.67 513.348 2043.06 509.566 2038.6 507.067C2034.41 504.715 2028.71 503.382 2022.76 503.361C2021.32 503.37 2019.9 503.465 2018.5 503.644C2017.23 503.803 2017.8 504.886 2019.07 504.726Z" fill="#CCCCCC"/>
<path d="M2071.03 573.961L2064.34 567.601L2072.59 564.91L2079.29 571.271C2079.93 571.88 2080.11 572.606 2079.79 573.289C2079.47 573.972 2078.68 574.556 2077.58 574.913C2076.49 575.27 2075.18 575.37 2073.95 575.192C2072.73 575.013 2071.68 574.571 2071.03 573.961Z" fill="#F9A447"/>
<path d="M2048.89 560.741C2052.14 560.741 2054.78 559.274 2054.78 557.464C2054.78 555.655 2052.14 554.188 2048.89 554.188C2045.64 554.188 2043 555.655 2043 557.464C2043 559.274 2045.64 560.741 2048.89 560.741Z" fill="#F9A447"/>
<path d="M2096.94 573.961L2090.25 567.601L2098.5 564.91L2105.2 571.271C2105.84 571.88 2106.02 572.606 2105.7 573.289C2105.38 573.972 2104.59 574.556 2103.49 574.913C2102.4 575.27 2101.09 575.37 2099.86 575.192C2098.64 575.013 2097.58 574.571 2096.94 573.961Z" fill="#F9A447"/>
<path d="M2050.01 564.064C2050.01 562.219 2051.33 560.449 2053.68 559.144C2056.03 557.839 2059.21 557.105 2062.53 557.103H2102.14C2103.54 557.104 2104.89 557.414 2105.88 557.966C2106.87 558.517 2107.43 559.265 2107.43 560.045V562.553C2107.42 564.799 2105.82 566.953 2102.96 568.542C2100.11 570.13 2096.23 571.024 2092.2 571.026H2062.53C2059.21 571.024 2056.03 570.29 2053.68 568.985C2051.33 567.68 2050.01 565.91 2050.01 564.064Z" fill="#3F3D56"/>
<path d="M2059.15 574.782V567.411H2068.72V574.782C2068.72 575.488 2068.21 576.165 2067.31 576.664C2066.42 577.163 2065.2 577.444 2063.93 577.444C2062.66 577.444 2061.45 577.163 2060.55 576.664C2059.65 576.165 2059.15 575.488 2059.15 574.782Z" fill="#3F3D56"/>
<path d="M2086.91 574.782V567.411H2096.48V574.782C2096.48 575.488 2095.98 576.165 2095.08 576.664C2094.18 577.163 2092.97 577.444 2091.7 577.444C2090.43 577.444 2089.21 577.163 2088.32 576.664C2087.42 576.165 2086.91 575.488 2086.91 574.782Z" fill="#3F3D56"/>
<path d="M2125.85 545.618C2126.83 544.942 2128.25 544.509 2129.8 544.416C2131.35 544.322 2132.91 544.575 2134.12 545.118C2135.34 545.662 2136.12 546.452 2136.29 547.315C2136.46 548.178 2136.01 549.043 2135.03 549.721L2125.35 556.426L2116.17 552.323L2125.85 545.618Z" fill="#F9A447"/>
<path d="M2102.53 558.826L2110.29 553.455C2112.17 552.152 2114.91 551.318 2117.9 551.136C2120.89 550.955 2123.88 551.44 2126.23 552.486L2128.65 553.569C2131.45 554.82 2133.23 556.636 2133.62 558.618C2134.01 560.601 2132.97 562.589 2130.73 564.145L2124.34 568.571C2123.63 569.059 2122.61 569.371 2121.49 569.439C2120.37 569.507 2119.25 569.325 2118.37 568.933L2103.18 562.147C2102.31 561.755 2101.74 561.185 2101.62 560.562C2101.5 559.939 2101.83 559.315 2102.53 558.826Z" fill="#3F3D56"/>
<path d="M2127 544.82C2127.67 544.354 2128.65 544.056 2129.72 543.991C2130.79 543.926 2131.86 544.1 2132.69 544.474C2133.53 544.848 2134.07 545.392 2134.18 545.986C2134.3 546.579 2133.99 547.175 2133.31 547.64L2122.48 555.144L2116.17 552.323L2127 544.82Z" fill="#3F3D56"/>
<path d="M2111.48 557.362L2128.13 564.798C2128.73 565.068 2129.23 565.4 2129.6 565.778C2129.97 566.155 2130.21 566.569 2130.29 566.997C2130.38 567.425 2130.31 567.857 2130.09 568.27C2129.88 568.683 2129.51 569.068 2129.03 569.404C2128.55 569.739 2127.95 570.018 2127.27 570.225C2126.59 570.432 2125.85 570.562 2125.08 570.609C2124.31 570.656 2123.53 570.618 2122.79 570.497C2122.05 570.377 2121.35 570.176 2120.75 569.907L2104.11 562.47L2111.48 557.362Z" fill="#3F3D56"/>
<path d="M2129.74 569.647C2130.6 569.051 2130.82 568.354 2130.22 568.088C2129.63 567.823 2128.45 568.09 2127.59 568.685C2126.73 569.28 2126.52 569.978 2127.11 570.243C2127.71 570.509 2128.88 570.242 2129.74 569.647Z" fill="#F9A447"/>
<path d="M2277.64 471.672C2284.49 471.672 2290.05 468.583 2290.05 464.773C2290.05 460.962 2284.49 457.873 2277.64 457.873C2270.79 457.873 2265.24 460.962 2265.24 464.773C2265.24 468.583 2270.79 471.672 2277.64 471.672Z" fill="#2F2E41"/>
<path d="M2246.78 523.801L2241.35 523.801L2238.77 512.149H2246.78L2246.78 523.801Z" fill="#A0616A"/>
<path d="M2237.47 522.938H2247.95V526.606H2230.88C2230.88 526.124 2231.05 525.647 2231.38 525.202C2231.71 524.757 2232.2 524.353 2232.81 524.012C2233.42 523.671 2234.15 523.401 2234.95 523.217C2235.75 523.033 2236.61 522.938 2237.47 522.938Z" fill="#2F2E41"/>
<path d="M2238.31 522.115L2233.13 521.211L2236.93 509.663L2244.58 510.998L2238.31 522.115Z" fill="#A0616A"/>
<path d="M2229.89 519.741L2239.88 521.485L2237.91 524.985L2221.62 522.142C2222.15 521.214 2223.31 520.44 2224.86 519.989C2226.41 519.539 2228.22 519.45 2229.89 519.741Z" fill="#2F2E41"/>
<path d="M2240.07 517.466C2239.83 517.466 2239.6 517.442 2239.38 517.396L2235.38 516.562C2234.93 516.468 2234.56 516.287 2234.33 516.053C2234.1 515.818 2234.03 515.546 2234.14 515.285C2235.14 512.769 2238.57 504.204 2240.45 499.611C2242.67 494.161 2275.14 493.149 2276.52 493.108L2276.64 493.105L2280.29 495.659C2281.61 498.019 2281.19 499.86 2279.05 501.131C2272.79 504.838 2254.1 502.538 2251.87 502.247L2241.94 516.752C2241.79 516.962 2241.54 517.143 2241.2 517.27C2240.87 517.398 2240.48 517.466 2240.07 517.466Z" fill="#2F2E41"/>
<path d="M2245.83 519.191C2245.59 519.191 2245.36 519.167 2245.13 519.12L2241.14 518.287C2240.69 518.193 2240.32 518.012 2240.09 517.777C2239.86 517.543 2239.79 517.271 2239.89 517.01C2240.9 514.494 2244.33 505.929 2246.2 501.335C2248.43 495.886 2280.9 494.874 2282.28 494.833L2282.4 494.83L2286.05 497.384C2287.37 499.744 2286.95 501.585 2284.81 502.856C2278.55 506.563 2259.86 504.262 2257.63 503.971L2247.7 518.477C2247.55 518.687 2247.3 518.868 2246.96 518.995C2246.63 519.123 2246.23 519.191 2245.83 519.191Z" fill="#2F2E41"/>
<path d="M2234.27 483.705C2234.42 483.814 2234.55 483.93 2234.66 484.05L2256.51 485.331L2259.65 482.932L2266.78 485.099L2260.6 490.919L2233.81 487.119C2233.14 487.486 2232.28 487.729 2231.35 487.817C2230.42 487.905 2229.46 487.833 2228.6 487.611C2227.75 487.389 2227.03 487.028 2226.56 486.575C2226.08 486.121 2225.86 485.598 2225.93 485.075C2226 484.551 2226.36 484.051 2226.95 483.643C2227.54 483.234 2228.35 482.936 2229.25 482.787C2230.16 482.638 2231.12 482.647 2232.02 482.811C2232.92 482.974 2233.7 483.286 2234.27 483.705Z" fill="#A0616A"/>
<path d="M2285.04 498.361C2284.72 498.36 2284.41 498.318 2284.13 498.238C2279.76 497.002 2271.25 494.862 2263.37 494.414C2263.1 494.4 2262.84 494.354 2262.6 494.279C2262.36 494.205 2262.16 494.104 2262 493.983C2261.83 493.861 2261.71 493.721 2261.65 493.572C2261.59 493.423 2261.58 493.269 2261.63 493.118C2262.34 490.926 2263.97 485.345 2263.76 480.872C2263.7 479.496 2264.48 478.15 2265.98 477.055C2267.47 475.959 2269.59 475.179 2271.99 474.843C2273.43 474.631 2274.9 474.47 2276.38 474.362C2278.08 474.242 2279.81 474.345 2281.43 474.664C2283.04 474.982 2284.5 475.507 2285.69 476.196C2286.88 476.885 2287.76 477.719 2288.26 478.631C2288.76 479.543 2288.88 480.508 2288.59 481.448C2287.18 486.084 2285.76 492.558 2287 497.078C2287.05 497.281 2287.01 497.488 2286.86 497.677C2286.72 497.866 2286.49 498.03 2286.19 498.149C2285.85 498.286 2285.45 498.36 2285.04 498.361Z" fill="#CCCCCC"/>
<path d="M2264.16 486.571C2263.89 486.57 2263.62 486.539 2263.37 486.479L2257.68 485.108C2257.2 484.991 2256.82 484.772 2256.62 484.499C2256.43 484.225 2256.44 483.92 2256.65 483.65L2261.04 477.997C2261.31 477.656 2261.69 477.347 2262.17 477.088C2262.66 476.829 2263.22 476.625 2263.84 476.488C2264.47 476.351 2265.13 476.284 2265.8 476.29C2266.47 476.296 2267.13 476.375 2267.74 476.523C2268.36 476.67 2268.91 476.884 2269.38 477.151C2269.84 477.418 2270.21 477.734 2270.45 478.08C2270.7 478.426 2270.82 478.796 2270.81 479.168C2270.8 479.54 2270.66 479.907 2270.39 480.248L2265.99 485.901C2265.84 486.1 2265.58 486.269 2265.26 486.388C2264.93 486.507 2264.55 486.57 2264.16 486.571Z" fill="#CCCCCC"/>
<path d="M2277.19 472.439C2283.2 472.439 2288.07 469.729 2288.07 466.387C2288.07 463.044 2283.2 460.335 2277.19 460.335C2271.18 460.335 2266.31 463.044 2266.31 466.387C2266.31 469.729 2271.18 472.439 2277.19 472.439Z" fill="#A0616A"/>
<path d="M2266.12 463.414C2271.27 465.163 2277.08 466.228 2283.09 466.525L2281.3 465.332C2282.61 465.6 2283.98 465.752 2285.36 465.781C2286.06 465.792 2286.75 465.713 2287.38 465.549C2288.01 465.385 2288.56 465.141 2288.99 464.837C2289.34 464.521 2289.55 464.163 2289.6 463.793C2289.65 463.422 2289.53 463.051 2289.27 462.711C2288.72 462.031 2287.87 461.441 2286.8 460.996C2284.9 460.16 2282.66 459.599 2280.28 459.362C2277.89 459.125 2275.44 459.219 2273.14 459.637C2271.56 459.9 2270.15 460.405 2269.06 461.093C2268.03 461.801 2266.04 462.432 2266.57 463.294L2266.12 463.414Z" fill="#2F2E41"/>
<path d="M2279.02 458.53C2275.59 456.594 2271.44 455.1 2266.86 454.154C2263.95 453.473 2260.76 453.253 2257.64 453.518C2254.57 453.862 2251.66 455.045 2250.8 456.723C2250.1 458.095 2250.83 459.572 2251.91 460.864C2253 462.155 2254.46 463.353 2255.34 464.692C2256.23 466.06 2256.5 467.53 2256.12 468.969C2255.74 470.409 2254.72 471.773 2253.15 472.937C2251.58 474.101 2249.51 475.029 2247.13 475.636C2244.75 476.242 2242.14 476.509 2239.53 476.412C2242.55 476.637 2245.33 477.427 2248.29 477.847C2251.24 478.267 2254.72 478.239 2256.92 477.062C2259.24 475.817 2259.28 473.793 2259.17 472L2258.67 464.006C2258.59 462.647 2258.51 461.245 2259.39 459.976C2260.27 458.708 2262.37 457.597 2264.81 457.609C2266.67 457.617 2268.3 458.242 2269.79 458.857C2271.28 459.473 2272.85 460.13 2274.69 460.221C2276.54 460.313 2278.65 459.553 2278.51 458.526" fill="#2F2E41"/>
<path d="M2258.9 496.806C2258.18 496.806 2257.47 496.717 2256.82 496.545C2256.17 496.373 2255.59 496.123 2255.14 495.812C2254.68 495.502 2254.35 495.139 2254.18 494.75C2254 494.361 2253.99 493.955 2254.13 493.562C2254.27 493.169 2254.57 492.798 2255 492.476C2255.43 492.155 2255.98 491.89 2256.62 491.702C2257.25 491.513 2257.96 491.406 2258.68 491.387C2259.4 491.368 2260.12 491.438 2260.78 491.592C2260.98 491.639 2261.17 491.693 2261.36 491.756L2281.18 486.806L2281.73 483.816L2290.28 483.689L2290.22 488.667C2290.21 489.243 2289.86 489.803 2289.24 490.262C2288.61 490.721 2287.73 491.055 2286.74 491.215L2263.56 494.885C2263.52 494.97 2263.47 495.054 2263.4 495.136C2263.03 495.63 2262.41 496.052 2261.61 496.349C2260.81 496.646 2259.86 496.805 2258.9 496.806Z" fill="#A0616A"/>
<path d="M2289.55 486.129C2289.31 486.198 2289.04 486.238 2288.77 486.247L2282.58 486.458C2282.06 486.476 2281.54 486.377 2281.14 486.182C2280.75 485.987 2280.5 485.713 2280.47 485.42L2279.79 479.271C2279.75 478.9 2279.84 478.527 2280.06 478.175C2280.27 477.823 2280.61 477.498 2281.06 477.219C2281.5 476.939 2282.04 476.712 2282.64 476.548C2283.24 476.385 2283.89 476.289 2284.56 476.266C2285.23 476.243 2285.9 476.294 2286.53 476.415C2287.17 476.536 2287.75 476.725 2288.25 476.972C2288.75 477.219 2289.16 477.518 2289.45 477.853C2289.75 478.188 2289.92 478.552 2289.96 478.923L2290.64 485.072C2290.66 485.288 2290.57 485.503 2290.38 485.691C2290.19 485.879 2289.9 486.031 2289.55 486.129Z" fill="#CCCCCC"/>
<path d="M2241.11 497.428H2276.1C2276.96 497.428 2277.65 497.042 2277.65 496.566C2277.65 496.089 2276.96 495.703 2276.1 495.703H2241.11C2240.26 495.703 2239.56 496.089 2239.56 496.566C2239.56 497.042 2240.26 497.428 2241.11 497.428Z" fill="#3F3D56"/>
<path d="M2225.83 495.826V483.753C2225.83 483.328 2226.14 482.921 2226.68 482.621C2227.22 482.321 2227.95 482.152 2228.71 482.151H2268.13C2268.89 482.152 2269.62 482.321 2270.16 482.621C2270.7 482.921 2271.01 483.328 2271.01 483.753V495.826C2271.01 496.251 2270.7 496.658 2270.16 496.958C2269.62 497.259 2268.89 497.428 2268.13 497.428H2228.71C2227.95 497.428 2227.22 497.259 2226.68 496.958C2226.14 496.658 2225.83 496.251 2225.83 495.826Z" fill="#3F3D56"/>
<path d="M2248.42 491.268C2249.89 491.268 2251.08 490.606 2251.08 489.79C2251.08 488.973 2249.89 488.311 2248.42 488.311C2246.95 488.311 2245.76 488.973 2245.76 489.79C2245.76 490.606 2246.95 491.268 2248.42 491.268Z" fill="white"/>
<path d="M1962.74 461.886H1953.15C1952.22 461.886 1951.33 461.681 1950.68 461.317C1950.03 460.953 1949.66 460.46 1949.66 459.945C1949.66 459.431 1950.03 458.937 1950.68 458.574C1951.33 458.21 1952.22 458.005 1953.15 458.005H1962.74C1963.66 458.005 1964.55 458.21 1965.2 458.574C1965.86 458.937 1966.22 459.431 1966.22 459.945C1966.22 460.46 1965.86 460.953 1965.2 461.317C1964.55 461.681 1963.66 461.886 1962.74 461.886Z" fill="#F9A447"/>
</g>
<g clip-path="url(#clip4_0_3)">
<path d="M3160.72 525.904H2775.82C2773.44 525.902 2771.15 525.197 2769.46 523.943C2767.78 522.689 2766.83 520.989 2766.82 519.215V323.886C2766.83 322.113 2767.78 320.413 2769.46 319.159C2771.15 317.905 2773.44 317.199 2775.82 317.197H3160.72C3163.1 317.199 3165.39 317.905 3167.08 319.159C3168.77 320.413 3169.72 322.113 3169.72 323.886V519.215C3169.72 520.989 3168.77 522.689 3167.08 523.943C3165.39 525.197 3163.1 525.902 3160.72 525.904Z" fill="white"/>
<path d="M3160.72 525.904H2775.82C2773.44 525.902 2771.15 525.197 2769.46 523.943C2767.78 522.689 2766.83 520.989 2766.82 519.215V323.886C2766.83 322.113 2767.78 320.413 2769.46 319.159C2771.15 317.905 2773.44 317.199 2775.82 317.197H3160.72C3163.1 317.199 3165.39 317.905 3167.08 319.159C3168.77 320.413 3169.72 322.113 3169.72 323.886V519.215C3169.72 520.989 3168.77 522.689 3167.08 523.943C3165.39 525.197 3163.1 525.902 3160.72 525.904ZM2775.82 318.684C2773.97 318.685 2772.19 319.234 2770.88 320.209C2769.56 321.185 2768.83 322.507 2768.82 323.886V519.215C2768.83 520.595 2769.56 521.917 2770.88 522.892C2772.19 523.867 2773.97 524.416 2775.82 524.418H3160.72C3162.57 524.416 3164.35 523.867 3165.67 522.892C3166.98 521.917 3167.72 520.595 3167.72 519.215V323.886C3167.72 322.507 3166.98 321.185 3165.67 320.209C3164.35 319.234 3162.57 318.685 3160.72 318.684H2775.82Z" fill="#3F3D56"/>
<path d="M3012.83 524.729H2923.72V415.092C2923.72 412.492 2925.11 409.999 2927.59 408.16C2930.06 406.322 2933.42 405.287 2936.91 405.284H2999.63C3003.13 405.287 3006.48 406.321 3008.96 408.16C3011.43 409.999 3012.82 412.492 3012.83 415.092V524.729Z" fill="#E6E6E6"/>
<path d="M2852.82 302.176C2906.94 302.176 2950.81 269.57 2950.81 229.349C2950.81 189.127 2906.94 156.521 2852.82 156.521C2798.7 156.521 2754.83 189.127 2754.83 229.349C2754.83 269.57 2798.7 302.176 2852.82 302.176Z" fill="#F2F2F2"/>
<path d="M2886.08 437.132H2810.81C2807.81 437.129 2804.93 436.242 2802.81 434.664C2800.68 433.086 2799.49 430.947 2799.49 428.715V382.596C2799.49 380.365 2800.68 378.226 2802.81 376.648C2804.93 375.07 2807.81 374.183 2810.81 374.18H2886.08C2889.08 374.183 2891.96 375.07 2894.08 376.648C2896.21 378.226 2897.4 380.365 2897.4 382.596V428.715C2897.4 430.946 2896.21 433.086 2894.08 434.664C2891.96 436.241 2889.08 437.129 2886.08 437.132Z" fill="#E6E6E6"/>
<path d="M2738.09 321.215V291.162C2738.09 288.853 2738.91 286.586 2740.47 284.589C2742.03 282.592 2744.27 280.937 2746.97 279.792L2971.64 184.355C2974.43 183.17 2977.6 182.574 2980.81 182.632C2984.02 182.69 2987.15 183.399 2989.86 184.683L3190.31 279.701C3192.81 280.885 3194.86 282.517 3196.28 284.447C3197.71 286.377 3198.45 288.542 3198.45 290.743V321.215C3198.45 324.688 3196.6 328.019 3193.29 330.475C3189.99 332.931 3185.51 334.311 3180.83 334.311H2755.71C2751.04 334.311 2746.55 332.931 2743.25 330.475C2739.94 328.019 2738.09 324.688 2738.09 321.215Z" fill="#F9A447"/>
<path opacity="0.2" d="M3180.83 320.931H2755.71C2751.04 320.931 2746.55 319.551 2743.25 317.095C2739.94 314.639 2738.09 311.308 2738.09 307.835V319.726C2738.09 323.199 2739.94 326.53 2743.25 328.986C2746.55 331.442 2751.04 332.822 2755.71 332.822H3180.83C3185.51 332.822 3189.99 331.442 3193.29 328.986C3196.6 326.53 3198.45 323.199 3198.45 319.726V307.835C3198.45 311.308 3196.6 314.639 3193.29 317.095C3189.99 319.551 3185.51 320.931 3180.83 320.931Z" fill="black"/>
<path d="M2530.03 377.918C2530.03 344.016 2567.01 263.568 2612.62 263.568C2658.24 263.568 2695.22 344.016 2695.22 377.918C2695.22 394.198 2686.52 409.812 2671.03 421.323C2655.54 432.835 2634.53 439.303 2612.62 439.303C2590.72 439.303 2569.71 432.835 2554.22 421.323C2538.73 409.812 2530.03 394.198 2530.03 377.918Z" fill="#F9A447"/>
<path d="M2612.62 526.503C2612.36 526.503 2612.1 526.425 2611.92 526.286C2611.73 526.146 2611.62 525.957 2611.62 525.76V305.344C2611.62 305.146 2611.73 304.957 2611.92 304.818C2612.1 304.679 2612.36 304.6 2612.62 304.6C2612.89 304.6 2613.14 304.679 2613.33 304.818C2613.52 304.957 2613.62 305.146 2613.62 305.344V525.76C2613.62 525.957 2613.52 526.146 2613.33 526.286C2613.14 526.425 2612.89 526.503 2612.62 526.503Z" fill="#3F3D56"/>
<path d="M2612.62 402.739C2612.43 402.739 2612.24 402.696 2612.07 402.616C2611.91 402.536 2611.78 402.422 2611.7 402.288C2611.63 402.154 2611.6 402.007 2611.64 401.863C2611.67 401.72 2611.76 401.588 2611.9 401.483L2653.89 368.737C2654.07 368.595 2654.32 368.512 2654.59 368.507C2654.85 368.502 2655.11 368.576 2655.3 368.712C2655.49 368.848 2655.6 369.035 2655.61 369.232C2655.62 369.429 2655.52 369.62 2655.33 369.763L2613.35 402.508C2613.25 402.581 2613.14 402.639 2613.02 402.679C2612.89 402.718 2612.76 402.739 2612.62 402.739Z" fill="#3F3D56"/>
<path d="M2612.62 347.531C2612.37 347.531 2612.13 347.462 2611.95 347.336L2575.66 322.68C2575.47 322.547 2575.35 322.362 2575.34 322.165C2575.33 321.968 2575.42 321.776 2575.6 321.63C2575.78 321.485 2576.03 321.398 2576.29 321.389C2576.56 321.38 2576.82 321.45 2577.01 321.583L2613.3 346.239C2613.45 346.34 2613.55 346.472 2613.6 346.618C2613.64 346.764 2613.63 346.917 2613.56 347.057C2613.48 347.196 2613.35 347.316 2613.19 347.401C2613.02 347.485 2612.82 347.531 2612.62 347.531Z" fill="#3F3D56"/>
<path d="M2533.74 526.271C2533.93 526.38 2534.13 526.479 2534.33 526.587H2698.47C2701.69 516.902 2702.82 507.207 2698.02 498.787C2691.17 486.79 2670.91 479.301 2654.81 484.453C2650.99 485.706 2647.67 487.661 2645.15 490.133C2638.86 481.759 2627.57 475.446 2614.53 475.453C2598.21 475.462 2584.63 485.385 2580.2 496.847C2573.07 487.898 2558.98 481.644 2545.21 484.334C2522.17 488.834 2514.9 515.446 2533.74 526.271Z" fill="#E6E6E6"/>
<path d="M2794.81 494.174C2795.02 493.587 2795.04 492.973 2794.89 492.377C2794.74 491.781 2794.42 491.217 2793.94 490.724C2793.47 490.231 2792.85 489.822 2792.14 489.525C2791.43 489.228 2790.64 489.051 2789.82 489.005L2758.07 459.497L2750.21 464.941L2783.76 493.128C2783.75 494.149 2784.24 495.137 2785.14 495.907C2786.05 496.676 2787.3 497.172 2788.66 497.301C2790.02 497.43 2791.4 497.183 2792.54 496.606C2793.67 496.03 2794.48 495.165 2794.81 494.174Z" fill="#FFB8B8"/>
<path d="M2764.16 464.185L2754.12 469.897C2753.84 470.06 2753.51 470.174 2753.16 470.234C2752.81 470.293 2752.44 470.296 2752.09 470.241C2751.74 470.187 2751.41 470.076 2751.12 469.918C2750.83 469.759 2750.59 469.556 2750.41 469.323L2744.3 461.132C2743.19 460.041 2742.71 458.668 2742.96 457.313C2743.21 455.959 2744.17 454.733 2745.63 453.904C2747.1 453.076 2748.94 452.713 2750.77 452.895C2752.59 453.077 2754.24 453.788 2755.36 454.874L2764.38 461.373C2764.64 461.559 2764.84 461.784 2764.97 462.033C2765.1 462.282 2765.16 462.55 2765.14 462.816C2765.11 463.083 2765.02 463.344 2764.85 463.58C2764.68 463.816 2764.44 464.022 2764.16 464.185Z" fill="#3F3D56"/>
<path d="M2747.3 446.371C2754.35 446.371 2760.07 442.124 2760.07 436.886C2760.07 431.647 2754.35 427.401 2747.3 427.401C2740.26 427.401 2734.54 431.647 2734.54 436.886C2734.54 442.124 2740.26 446.371 2747.3 446.371Z" fill="#FFB8B8"/>
<path d="M2774.55 559.92H2780.92L2780.31 551.059H2770.91L2774.55 559.92Z" fill="#FFB8B8"/>
<path d="M2772.92 558.375L2785.47 558.375C2786.52 558.374 2787.56 558.528 2788.53 558.827C2789.5 559.125 2790.38 559.563 2791.12 560.115C2791.86 560.667 2792.45 561.322 2792.85 562.043C2793.26 562.763 2793.46 563.536 2793.46 564.316V564.509L2772.92 564.51L2772.92 558.375Z" fill="#2F2E41"/>
<path d="M2706.63 553.217L2712.05 555.706L2717.8 547.93L2711.24 544.88L2706.63 553.217Z" fill="#FFB8B8"/>
<path d="M2706.34 551.268L2717.01 556.168C2717.9 556.578 2718.68 557.115 2719.29 557.748C2719.91 558.381 2720.35 559.097 2720.59 559.857C2720.83 560.616 2720.87 561.403 2720.7 562.174C2720.53 562.944 2720.16 563.682 2719.61 564.346L2719.47 564.51L2702 556.487L2706.34 551.268Z" fill="#2F2E41"/>
<path d="M2774.09 557.323C2773.61 557.322 2773.15 557.215 2772.76 557.015C2772.37 556.815 2772.07 556.531 2771.91 556.202L2748.86 515.257C2748.81 515.157 2748.73 515.069 2748.61 515.002C2748.5 514.936 2748.37 514.895 2748.22 514.882C2748.08 514.869 2747.94 514.885 2747.81 514.93C2747.68 514.974 2747.57 515.044 2747.48 515.132L2715.83 552.195C2715.52 552.54 2715.05 552.791 2714.51 552.902C2713.98 553.013 2713.4 552.977 2712.9 552.801L2708.57 551.298C2708.01 551.104 2707.58 550.756 2707.37 550.328C2707.15 549.901 2707.17 549.429 2707.42 549.012L2733.36 506.046C2732.79 505.022 2727.27 494.508 2735.75 489.314L2735.81 489.287L2758.83 481.657L2759.41 494.778L2782.35 553.927C2782.43 554.15 2782.46 554.383 2782.42 554.613C2782.38 554.843 2782.29 555.065 2782.13 555.267C2781.98 555.468 2781.77 555.645 2781.53 555.786C2781.28 555.927 2781 556.03 2780.69 556.089L2774.69 557.264C2774.49 557.303 2774.29 557.322 2774.09 557.323Z" fill="#2F2E41"/>
<path d="M2759.18 462.465C2758.3 459.851 2757.06 457.216 2755.39 456C2754.78 455.557 2754.21 455.086 2753.67 454.59C2752.55 453.542 2751.14 452.684 2749.54 452.074C2750.13 451.832 2750.47 451.542 2750.47 451.231C2750.47 450.378 2747.91 449.686 2744.75 449.686C2741.6 449.686 2739.04 450.378 2739.04 451.231C2739.05 451.33 2739.08 451.427 2739.14 451.516C2739.2 451.606 2739.28 451.686 2739.38 451.751C2737.32 452.376 2735.52 453.409 2734.2 454.738C2732.87 456.067 2732.06 457.64 2731.86 459.288C2731.12 465.164 2730.9 472.675 2733.49 477.426C2735.66 481.355 2735.83 485.736 2733.98 489.753C2733.85 490.032 2733.83 490.333 2733.93 490.619C2734.03 490.905 2734.23 491.164 2734.52 491.366C2734.81 491.568 2735.17 491.704 2735.56 491.758C2735.95 491.812 2736.36 491.782 2736.72 491.672L2759.56 484.832C2759.94 484.717 2760.27 484.519 2760.51 484.264C2760.74 484.009 2760.86 483.708 2760.86 483.4V473.013C2760.88 469.459 2760.31 465.917 2759.18 462.465Z" fill="#3F3D56"/>
<path d="M2715.48 505.247C2716.28 505.109 2717.02 504.844 2717.67 504.47C2718.31 504.096 2718.83 503.621 2719.2 503.08C2719.57 502.539 2719.77 501.945 2719.8 501.339C2719.83 500.732 2719.67 500.129 2719.35 499.572L2737.22 464.554L2728.16 462.816L2711.63 497.473C2710.41 497.936 2709.45 498.717 2708.95 499.668C2708.45 500.618 2708.44 501.673 2708.91 502.631C2709.39 503.589 2710.32 504.385 2711.53 504.867C2712.74 505.349 2714.15 505.484 2715.48 505.247Z" fill="#FFB8B8"/>
<path d="M2737.14 471.199L2725.7 467.216C2725.37 467.103 2725.08 466.938 2724.85 466.735C2724.61 466.531 2724.44 466.292 2724.35 466.035C2724.25 465.777 2724.23 465.507 2724.28 465.243C2724.34 464.979 2724.47 464.727 2724.67 464.504L2731.63 456.695C2732.42 455.461 2733.83 454.511 2735.57 454.052C2737.3 453.592 2739.2 453.662 2740.87 454.245C2742.53 454.828 2743.81 455.877 2744.44 457.162C2745.06 458.447 2744.98 459.864 2744.2 461.102L2740.6 470.047C2740.5 470.303 2740.32 470.54 2740.09 470.741C2739.85 470.942 2739.56 471.102 2739.23 471.212C2738.9 471.321 2738.54 471.376 2738.18 471.374C2737.82 471.372 2737.47 471.312 2737.14 471.199Z" fill="#3F3D56"/>
<path d="M2759.03 434.551C2759.6 434.602 2760.19 434.524 2760.7 434.327C2761.64 433.869 2761.55 432.828 2761.23 432.026C2760.44 430.103 2759.01 428.361 2757.07 426.958C2755.13 425.556 2752.74 424.539 2750.14 424.002C2748.32 423.643 2746.02 423.657 2744.98 424.821C2742.37 423.528 2739.22 422.973 2736.1 423.257C2732.99 423.542 2730.11 424.646 2728 426.371C2725.94 428.172 2724.56 430.352 2724.02 432.683C2722.92 436.654 2718.25 444.845 2720.84 448.412C2722.56 450.786 2730.49 448.937 2733.84 449.971C2735.51 450.51 2737.33 450.736 2739.14 450.627C2740.96 450.518 2742.71 450.078 2744.24 449.347C2745.74 448.578 2746.86 447.472 2747.45 446.191C2748.04 444.911 2748.06 443.524 2747.5 442.235C2746.92 441.288 2746.24 440.373 2745.48 439.496C2744.71 438.61 2744.4 437.549 2744.6 436.507C2745.07 434.92 2755.14 434.492 2759.03 434.551Z" fill="#2F2E41"/>
<path d="M2944.1 177.037C2942.1 573.014 2943.27 674.238 2944.1 675.353" stroke="#F5F5F5" stroke-width="20"/>
</g>
<defs>
<clipPath id="clip0_0_3">
<rect width="728" height="294.307" fill="white" transform="translate(1019 234.264)"/>
</clipPath>
<clipPath id="clip1_0_3">
<rect width="472" height="451.122" fill="white" transform="translate(0 76.7053)"/>
</clipPath>
<clipPath id="clip2_0_3">
<rect width="670" height="289.105" fill="white" transform="translate(602 237.98)"/>
</clipPath>
<clipPath id="clip3_0_3">
<rect width="666" height="304.712" fill="white" transform="translate(1747 272.91)"/>
</clipPath>
<clipPath id="clip4_0_3">
<rect width="849.967" height="533.883" fill="white" transform="translate(2508 30.627)"/>
</clipPath>
</defs>
</svg>
