<svg width="202" height="200" viewBox="0 0 202 200" fill="none" xmlns="http://www.w3.org/2000/svg">
<path d="M193.716 200H6.28484C4.61811 200 3.01937 199.17 1.84094 197.692C0.66216 196.215 0 194.21 0 192.121C67.9438 182.221 134.61 182.221 200 192.121C200 194.21 199.338 196.215 198.159 197.692C196.981 199.17 195.382 200 193.716 200Z" fill="#2F2E41"/>
<path d="M200 192.584L0 192.121L23.1794 143.221L23.2903 142.99V35.2214C23.2903 33.9133 23.4956 32.618 23.895 31.4095C24.2941 30.201 24.8794 29.1029 25.617 28.1779C26.3549 27.253 27.2306 26.5193 28.1945 26.0188C29.1583 25.5182 30.1916 25.2606 31.2347 25.2608H167.656C168.699 25.2606 169.733 25.5182 170.697 26.0188C171.66 26.5193 172.536 27.253 173.274 28.1779C174.012 29.1029 174.597 30.201 174.996 31.4095C175.395 32.618 175.601 33.9133 175.601 35.2214V143.731L200 192.584Z" fill="#3F3D56"/>
<path d="M31.0538 32.2132C30.3676 32.2142 29.71 32.5563 29.2246 33.1646C28.7395 33.7728 28.4668 34.5975 28.4661 35.4577V133.72C28.4668 134.58 28.7394 135.405 29.2249 136.013C29.71 136.621 30.3676 136.963 31.0538 136.964H168.947C169.632 136.963 170.29 136.621 170.775 136.013C171.261 135.405 171.533 134.58 171.534 133.72V35.4577C171.534 34.5975 171.261 33.7729 170.775 33.1646C170.29 32.5564 169.632 32.2142 168.947 32.2132H31.0538Z" fill="white"/>
<path d="M31.6317 149.942C31.4196 149.943 31.2121 150.019 31.0336 150.162C30.8551 150.306 30.7128 150.51 30.6239 150.751L23.4818 170.218C23.4039 170.43 23.3699 170.663 23.3827 170.896C23.3958 171.129 23.4549 171.353 23.5555 171.55C23.6557 171.746 23.7938 171.908 23.957 172.019C24.1203 172.131 24.303 172.19 24.4892 172.19H174.687C174.876 172.19 175.062 172.129 175.227 172.014C175.392 171.898 175.531 171.732 175.63 171.531C175.73 171.329 175.786 171.099 175.795 170.862C175.803 170.625 175.763 170.39 175.679 170.178L167.915 150.711C167.824 150.479 167.682 150.285 167.507 150.149C167.332 150.013 167.13 149.941 166.924 149.942H31.6317Z" fill="#2F2E41"/>
<path d="M99.4455 30.591C100.364 30.591 101.109 29.6572 101.109 28.5052C101.109 27.3533 100.364 26.4195 99.4455 26.4195C98.5266 26.4195 97.7819 27.3533 97.7819 28.5052C97.7819 29.6572 98.5266 30.591 99.4455 30.591Z" fill="white"/>
<path d="M84.6822 175.898C84.4386 175.898 84.2017 176 84.008 176.185C83.8147 176.371 83.6752 176.632 83.6114 176.927L81.82 185.27C81.7758 185.476 81.7698 185.692 81.8027 185.902C81.836 186.111 81.9068 186.308 82.0106 186.477C82.114 186.647 82.2471 186.784 82.4001 186.878C82.5527 186.973 82.7205 187.022 82.8908 187.022H116.962C117.139 187.022 117.313 186.969 117.47 186.867C117.628 186.766 117.763 186.619 117.866 186.438C117.968 186.258 118.035 186.049 118.06 185.829C118.085 185.61 118.068 185.386 118.01 185.177L115.707 176.834C115.631 176.561 115.49 176.324 115.302 176.156C115.114 175.989 114.889 175.898 114.658 175.898H84.6822Z" fill="#2F2E41"/>
<path d="M175.601 141.368V143.221H23.1794L23.2942 142.99V141.368H175.601Z" fill="#2F2E41"/>
<g filter="url(#filter0_d_1_334)">
<path d="M171.35 64.8899C185.641 64.8899 197.227 50.3639 197.227 32.445C197.227 14.5261 185.641 0 171.35 0C157.058 0 145.472 14.5261 145.472 32.445C145.472 50.3639 157.058 64.8899 171.35 64.8899Z" fill="#F9A447"/>
</g>
<path d="M182.07 46.5817H160.629C160.237 46.5812 159.861 46.3857 159.583 46.0382C159.306 45.6906 159.15 45.2193 159.15 44.7277V28.5052C159.15 28.0137 159.306 27.5424 159.583 27.1948C159.861 26.8472 160.237 26.6517 160.629 26.6512H182.07C182.462 26.6517 182.838 26.8472 183.115 27.1948C183.393 27.5424 183.549 28.0137 183.549 28.5052V44.7277C183.549 45.2193 183.393 45.6906 183.115 46.0382C182.838 46.3857 182.462 46.5812 182.07 46.5817ZM160.629 28.5052V44.7277H182.071L182.07 28.5052H160.629Z" fill="white"/>
<path d="M178.004 28.5053H164.695V21.0893C164.695 15.7179 167.494 11.8193 171.349 11.8193C175.205 11.8193 178.004 15.7179 178.004 21.0893V28.5053ZM166.174 26.6513H176.525V21.0893C176.525 16.7229 174.397 13.6733 171.349 13.6733C168.302 13.6733 166.174 16.7229 166.174 21.0893V26.6513Z" fill="white"/>
<path d="M171.349 38.007C172.166 38.007 172.828 37.177 172.828 36.153C172.828 35.1291 172.166 34.299 171.349 34.299C170.533 34.299 169.871 35.1291 169.871 36.153C169.871 37.177 170.533 38.007 171.349 38.007Z" fill="white"/>
<path d="M153.284 103.635H46.7158C46.1928 103.634 45.691 103.373 45.321 102.909C44.951 102.445 44.7431 101.817 44.7424 101.161V68.017C44.7431 67.3611 44.951 66.7321 45.321 66.2684C45.691 65.8043 46.1928 65.5435 46.7158 65.5425H153.284C153.808 65.5435 154.309 65.8043 154.679 66.2684C155.049 66.7321 155.257 67.3611 155.258 68.017V101.161C155.257 101.817 155.049 102.445 154.679 102.909C154.309 103.373 153.808 103.634 153.284 103.635ZM46.7158 66.5325C46.402 66.533 46.1011 66.6892 45.8791 66.9678C45.657 67.2459 45.532 67.6233 45.5317 68.017V101.161C45.532 101.554 45.657 101.931 45.8791 102.21C46.1011 102.488 46.402 102.645 46.7158 102.645H153.284C153.598 102.645 153.899 102.488 154.121 102.21C154.343 101.931 154.468 101.554 154.468 101.161V68.017C154.468 67.6233 154.343 67.2459 154.121 66.9678C153.899 66.6892 153.598 66.533 153.284 66.5325H46.7158Z" fill="#E6E6E6"/>
<path d="M63.2743 93.3959C67.7143 93.3959 71.3134 88.8835 71.3134 83.3171C71.3134 77.7507 67.7143 73.2379 63.2743 73.2379C58.8347 73.2379 55.2353 77.7507 55.2353 83.3171C55.2353 88.8835 58.8347 93.3959 63.2743 93.3959Z" fill="#E6E6E6"/>
<path d="M81.8406 76.5978C81.6643 76.5973 81.4901 76.6407 81.3272 76.725C81.1643 76.8089 81.0163 76.9328 80.8916 77.0889C80.767 77.2446 80.6682 77.4302 80.6009 77.6341C80.5333 77.8379 80.4986 78.0567 80.4986 78.2775C80.4986 78.4982 80.5333 78.7171 80.6009 78.9209C80.6682 79.1248 80.767 79.3104 80.8916 79.4661C81.0163 79.6222 81.1643 79.7461 81.3272 79.8304C81.4901 79.9143 81.6643 79.9577 81.8406 79.9572H145.004C145.359 79.9572 145.7 79.7803 145.951 79.4651C146.202 79.1504 146.344 78.7228 146.344 78.2775C146.344 77.8321 146.202 77.4046 145.951 77.0899C145.7 76.7747 145.359 76.5978 145.004 76.5978H81.8406Z" fill="#E6E6E6"/>
<defs>
<filter id="filter0_d_1_334" x="141.472" y="0" width="59.756" height="72.8899" filterUnits="userSpaceOnUse" color-interpolation-filters="sRGB">
<feFlood flood-opacity="0" result="BackgroundImageFix"/>
<feColorMatrix in="SourceAlpha" type="matrix" values="0 0 0 0 0 0 0 0 0 0 0 0 0 0 0 0 0 0 127 0" result="hardAlpha"/>
<feOffset dy="4"/>
<feGaussianBlur stdDeviation="2"/>
<feComposite in2="hardAlpha" operator="out"/>
<feColorMatrix type="matrix" values="0 0 0 0 0 0 0 0 0 0 0 0 0 0 0 0 0 0 0.25 0"/>
<feBlend mode="normal" in2="BackgroundImageFix" result="effect1_dropShadow_1_334"/>
<feBlend mode="normal" in="SourceGraphic" in2="effect1_dropShadow_1_334" result="shape"/>
</filter>
</defs>
</svg>
