<svg width="202" height="131" viewBox="0 0 202 131" fill="none" xmlns="http://www.w3.org/2000/svg">
<g filter="url(#filter0_d_115_78)">
<path d="M20.359 98.9009H28.087V101.891H20.359V98.9009ZM20.635 107.756H16.909V91.6559H29.076V94.6459H20.635V107.756ZM39.2152 108.032C37.9426 108.032 36.7696 107.833 35.6962 107.434C34.6382 107.02 33.7106 106.437 32.9132 105.686C32.1312 104.935 31.5179 104.053 31.0732 103.041C30.6439 102.029 30.4292 100.917 30.4292 99.7059C30.4292 98.4945 30.6439 97.3829 31.0732 96.3709C31.5179 95.3589 32.1389 94.4772 32.9362 93.7259C33.7336 92.9745 34.6689 92.3995 35.7422 92.0009C36.8156 91.5869 37.9962 91.3799 39.2842 91.3799C40.7102 91.3799 41.9906 91.6175 43.1252 92.0929C44.2752 92.5682 45.2412 93.2582 46.0232 94.1629L43.6312 96.3709C43.0486 95.7575 42.4122 95.3052 41.7222 95.0139C41.0322 94.7072 40.2809 94.5539 39.4682 94.5539C38.6862 94.5539 37.9732 94.6765 37.3292 94.9219C36.6852 95.1672 36.1256 95.5199 35.6502 95.9799C35.1902 96.4399 34.8299 96.9842 34.5692 97.6129C34.3239 98.2415 34.2012 98.9392 34.2012 99.7059C34.2012 100.457 34.3239 101.147 34.5692 101.776C34.8299 102.405 35.1902 102.957 35.6502 103.432C36.1256 103.892 36.6776 104.245 37.3062 104.49C37.9502 104.735 38.6556 104.858 39.4222 104.858C40.1582 104.858 40.8712 104.743 41.5612 104.513C42.2666 104.268 42.9489 103.861 43.6082 103.294L45.7242 105.985C44.8502 106.644 43.8306 107.15 42.6652 107.503C41.5152 107.856 40.3652 108.032 39.2152 108.032ZM42.3202 105.502V99.4529H45.7242V105.985L42.3202 105.502ZM52.1524 108.032C51.0637 108.032 50.0594 107.833 49.1394 107.434C48.2347 107.02 47.491 106.437 46.9084 105.686L48.9784 103.202C49.423 103.785 49.8907 104.229 50.3814 104.536C50.872 104.827 51.401 104.973 51.9684 104.973C53.4864 104.973 54.2454 104.084 54.2454 102.305V94.6459H48.5874V91.6559H57.9484V102.098C57.9484 104.091 57.4577 105.579 56.4764 106.56C55.495 107.541 54.0537 108.032 52.1524 108.032ZM61.6287 107.756V91.6559H68.5977C70.0391 91.6559 71.2811 91.8935 72.3237 92.3689C73.3664 92.8289 74.1714 93.4959 74.7387 94.3699C75.3061 95.2439 75.5897 96.2865 75.5897 97.4979C75.5897 98.6939 75.3061 99.7289 74.7387 100.603C74.1714 101.462 73.3664 102.121 72.3237 102.581C71.2811 103.041 70.0391 103.271 68.5977 103.271H63.6987L65.3547 101.638V107.756H61.6287ZM71.8637 107.756L67.8387 101.914H71.8177L75.8887 107.756H71.8637ZM65.3547 102.052L63.6987 100.304H68.3907C69.5407 100.304 70.3994 100.059 70.9667 99.5679C71.5341 99.0619 71.8177 98.3719 71.8177 97.4979C71.8177 96.6085 71.5341 95.9185 70.9667 95.4279C70.3994 94.9372 69.5407 94.6919 68.3907 94.6919H63.6987L65.3547 92.9209V102.052ZM85.0555 107.756V91.6559H88.7815V107.756H85.0555ZM92.6024 107.756V91.6559H95.6844L102.538 103.018H100.905L107.644 91.6559H110.703L110.749 107.756H107.253L107.23 97.0149H107.874L102.492 106.054H100.813L95.3164 97.0149H96.0984V107.756H92.6024ZM122.389 108.032C121.116 108.032 119.936 107.825 118.847 107.411C117.774 106.997 116.838 106.414 116.041 105.663C115.259 104.912 114.646 104.03 114.201 103.018C113.772 102.006 113.557 100.902 113.557 99.7059C113.557 98.5099 113.772 97.4059 114.201 96.3939C114.646 95.3819 115.267 94.5002 116.064 93.7489C116.861 92.9975 117.797 92.4149 118.87 92.0009C119.943 91.5869 121.109 91.3799 122.366 91.3799C123.639 91.3799 124.804 91.5869 125.862 92.0009C126.935 92.4149 127.863 92.9975 128.645 93.7489C129.442 94.5002 130.063 95.3819 130.508 96.3939C130.953 97.3905 131.175 98.4945 131.175 99.7059C131.175 100.902 130.953 102.014 130.508 103.041C130.063 104.053 129.442 104.935 128.645 105.686C127.863 106.422 126.935 106.997 125.862 107.411C124.804 107.825 123.646 108.032 122.389 108.032ZM122.366 104.858C123.087 104.858 123.746 104.735 124.344 104.49C124.957 104.245 125.494 103.892 125.954 103.432C126.414 102.972 126.767 102.428 127.012 101.799C127.273 101.17 127.403 100.473 127.403 99.7059C127.403 98.9392 127.273 98.2415 127.012 97.6129C126.767 96.9842 126.414 96.4399 125.954 95.9799C125.509 95.5199 124.98 95.1672 124.367 94.9219C123.754 94.6765 123.087 94.5539 122.366 94.5539C121.645 94.5539 120.978 94.6765 120.365 94.9219C119.767 95.1672 119.238 95.5199 118.778 95.9799C118.318 96.4399 117.958 96.9842 117.697 97.6129C117.452 98.2415 117.329 98.9392 117.329 99.7059C117.329 100.457 117.452 101.155 117.697 101.799C117.958 102.428 118.31 102.972 118.755 103.432C119.215 103.892 119.752 104.245 120.365 104.49C120.978 104.735 121.645 104.858 122.366 104.858ZM120.273 90.3449L123.378 87.0329H127.242L123.079 90.3449H120.273ZM138.289 107.756L131.343 91.6559H135.368L141.44 105.916H139.071L145.235 91.6559H148.938L141.969 107.756H138.289ZM153.709 98.1419H161.46V101.04H153.709V98.1419ZM153.985 104.766H162.748V107.756H150.282V91.6559H162.449V94.6459H153.985V104.766ZM165.713 107.756V91.6559H169.439V107.756H165.713ZM178.55 108.032C177.262 108.032 176.027 107.863 174.847 107.526C173.666 107.173 172.715 106.721 171.995 106.169L173.26 103.363C173.95 103.854 174.762 104.26 175.698 104.582C176.648 104.889 177.607 105.042 178.573 105.042C179.309 105.042 179.899 104.973 180.344 104.835C180.804 104.682 181.141 104.475 181.356 104.214C181.57 103.953 181.678 103.654 181.678 103.317C181.678 102.888 181.509 102.55 181.172 102.305C180.834 102.044 180.39 101.837 179.838 101.684C179.286 101.515 178.672 101.362 177.998 101.224C177.338 101.071 176.671 100.887 175.997 100.672C175.337 100.457 174.732 100.181 174.18 99.8439C173.628 99.5065 173.175 99.0619 172.823 98.5099C172.485 97.9579 172.317 97.2525 172.317 96.3939C172.317 95.4739 172.562 94.6382 173.053 93.8869C173.559 93.1202 174.31 92.5145 175.307 92.0699C176.319 91.6099 177.584 91.3799 179.102 91.3799C180.114 91.3799 181.11 91.5025 182.092 91.7479C183.073 91.9779 183.939 92.3305 184.691 92.8059L183.541 95.6349C182.789 95.2055 182.038 94.8912 181.287 94.6919C180.535 94.4772 179.799 94.3699 179.079 94.3699C178.358 94.3699 177.768 94.4542 177.308 94.6229C176.848 94.7915 176.518 95.0139 176.319 95.2899C176.119 95.5505 176.02 95.8572 176.02 96.2099C176.02 96.6239 176.188 96.9612 176.526 97.2219C176.863 97.4672 177.308 97.6665 177.86 97.8199C178.412 97.9732 179.017 98.1265 179.677 98.2799C180.351 98.4332 181.018 98.6095 181.678 98.8089C182.352 99.0082 182.966 99.2765 183.518 99.6139C184.07 99.9512 184.514 100.396 184.852 100.948C185.204 101.5 185.381 102.198 185.381 103.041C185.381 103.946 185.128 104.774 184.622 105.525C184.116 106.276 183.357 106.882 182.345 107.342C181.348 107.802 180.083 108.032 178.55 108.032Z" fill="white"/>
<line y1="-2.5" x2="110.612" y2="-2.5" transform="matrix(0.711698 -0.702486 0.768698 0.639612 7.99738 83.7036)" stroke="white" stroke-width="5"/>
<line y1="-2.5" x2="122.4" y2="-2.5" transform="matrix(0.747487 0.664276 -0.675996 0.736905 82 4.03174)" stroke="white" stroke-width="5"/>
<line y1="-2.5" x2="112.999" y2="-2.5" transform="matrix(0.712058 -0.70212 0.800223 0.599702 32.2896 85.3394)" stroke="white" stroke-width="5"/>
<line y1="-2.5" x2="117.702" y2="-2.5" transform="matrix(0.739179 0.673509 -0.685122 0.728428 107 4.03174)" stroke="white" stroke-width="5"/>
<line x1="172.915" y1="50.0771" x2="172.915" y2="62.9613" stroke="white" stroke-width="2"/>
<line x1="183.959" y1="49.3994" x2="183.959" y2="73.1334" stroke="white" stroke-width="2"/>
<line x1="171.915" y1="49.0771" x2="184.537" y2="49.0771" stroke="white" stroke-width="2"/>
<rect x="91.3929" y="58.5464" width="7.46613" height="6.13735" stroke="white" stroke-width="2"/>
<rect x="104.014" y="58.5464" width="7.46613" height="6.13735" stroke="white" stroke-width="2"/>
<rect x="104.014" y="69.396" width="7.46613" height="6.13736" stroke="white" stroke-width="2"/>
<rect x="91.3929" y="69.396" width="7.46613" height="6.13736" stroke="white" stroke-width="2"/>
</g>
<defs>
<filter id="filter0_d_115_78" x="-2" y="0.347168" width="206" height="138.653" filterUnits="userSpaceOnUse" color-interpolation-filters="sRGB">
<feFlood flood-opacity="0" result="BackgroundImageFix"/>
<feColorMatrix in="SourceAlpha" type="matrix" values="0 0 0 0 0 0 0 0 0 0 0 0 0 0 0 0 0 0 127 0" result="hardAlpha"/>
<feOffset dy="4"/>
<feGaussianBlur stdDeviation="2"/>
<feComposite in2="hardAlpha" operator="out"/>
<feColorMatrix type="matrix" values="0 0 0 0 0 0 0 0 0 0 0 0 0 0 0 0 0 0 0.25 0"/>
<feBlend mode="normal" in2="BackgroundImageFix" result="effect1_dropShadow_115_78"/>
<feBlend mode="normal" in="SourceGraphic" in2="effect1_dropShadow_115_78" result="shape"/>
</filter>
</defs>
</svg>
