<svg width="300" height="300" viewBox="0 0 170 100" fill="none" xmlns="http://www.w3.org/2000/svg">
<g filter="url(#filter0_d_15_17)">
<path d="M21.427 74.3036H27.811V76.7736H21.427V74.3036ZM21.655 81.6186H18.577V68.3186H28.628V70.7886H21.655V81.6186ZM37.0039 81.8466C35.9526 81.8466 34.9835 81.6819 34.0969 81.3526C33.2229 81.0106 32.4565 80.5292 31.7979 79.9086C31.1519 79.2879 30.6452 78.5596 30.2779 77.7236C29.9232 76.8876 29.7459 75.9692 29.7459 74.9686C29.7459 73.9679 29.9232 73.0496 30.2779 72.2136C30.6452 71.3776 31.1582 70.6492 31.8169 70.0286C32.4755 69.4079 33.2482 68.9329 34.1349 68.6036C35.0215 68.2616 35.9969 68.0906 37.0609 68.0906C38.2389 68.0906 39.2965 68.2869 40.2339 68.6796C41.1839 69.0722 41.9819 69.6422 42.6279 70.3896L40.6519 72.2136C40.1706 71.7069 39.6449 71.3332 39.0749 71.0926C38.5049 70.8392 37.8842 70.7126 37.2129 70.7126C36.5669 70.7126 35.9779 70.8139 35.4459 71.0166C34.9139 71.2192 34.4515 71.5106 34.0589 71.8906C33.6789 72.2706 33.3812 72.7202 33.1659 73.2396C32.9632 73.7589 32.8619 74.3352 32.8619 74.9686C32.8619 75.5892 32.9632 76.1592 33.1659 76.6786C33.3812 77.1979 33.6789 77.6539 34.0589 78.0466C34.4515 78.4266 34.9075 78.7179 35.4269 78.9206C35.9589 79.1232 36.5415 79.2246 37.1749 79.2246C37.7829 79.2246 38.3719 79.1296 38.9419 78.9396C39.5245 78.7369 40.0882 78.4012 40.6329 77.9326L42.3809 80.1556C41.6589 80.7002 40.8165 81.1182 39.8539 81.4096C38.9039 81.7009 37.9539 81.8466 37.0039 81.8466ZM39.5689 79.7566V74.7596H42.3809V80.1556L39.5689 79.7566ZM47.6911 81.8466C46.7918 81.8466 45.9621 81.6819 45.2021 81.3526C44.4548 81.0106 43.8404 80.5292 43.3591 79.9086L45.0691 77.8566C45.4364 78.3379 45.8228 78.7052 46.2281 78.9586C46.6334 79.1992 47.0704 79.3196 47.5391 79.3196C48.7931 79.3196 49.4201 78.5849 49.4201 77.1156V70.7886H44.7461V68.3186H52.4791V76.9446C52.4791 78.5912 52.0738 79.8199 51.2631 80.6306C50.4524 81.4412 49.2618 81.8466 47.6911 81.8466ZM55.5194 81.6186V68.3186H61.2764C62.467 68.3186 63.493 68.5149 64.3544 68.9076C65.2157 69.2876 65.8807 69.8386 66.3494 70.5606C66.8181 71.2826 67.0524 72.1439 67.0524 73.1446C67.0524 74.1326 66.8181 74.9876 66.3494 75.7096C65.8807 76.4189 65.2157 76.9636 64.3544 77.3436C63.493 77.7236 62.467 77.9136 61.2764 77.9136H57.2294L58.5974 76.5646V81.6186H55.5194ZM63.9744 81.6186L60.6494 76.7926H63.9364L67.2994 81.6186H63.9744ZM58.5974 76.9066L57.2294 75.4626H61.1054C62.0554 75.4626 62.7647 75.2599 63.2334 74.8546C63.702 74.4366 63.9364 73.8666 63.9364 73.1446C63.9364 72.4099 63.702 71.8399 63.2334 71.4346C62.7647 71.0292 62.0554 70.8266 61.1054 70.8266H57.2294L58.5974 69.3636V76.9066ZM74.8719 81.6186V68.3186H77.9499V81.6186H74.8719ZM81.1063 81.6186V68.3186H83.6523L89.3143 77.7046H87.9653L93.5323 68.3186H96.0593L96.0973 81.6186H93.2093L93.1903 72.7456H93.7223L89.2763 80.2126H87.8893L83.3483 72.7456H83.9943V81.6186H81.1063ZM105.713 81.8466C104.661 81.8466 103.686 81.6756 102.787 81.3336C101.9 80.9916 101.127 80.5102 100.469 79.8896C99.8228 79.2689 99.3161 78.5406 98.9488 77.7046C98.5941 76.8686 98.4168 75.9566 98.4168 74.9686C98.4168 73.9806 98.5941 73.0686 98.9488 72.2326C99.3161 71.3966 99.8291 70.6682 100.488 70.0476C101.146 69.4269 101.919 68.9456 102.806 68.6036C103.692 68.2616 104.655 68.0906 105.694 68.0906C106.745 68.0906 107.708 68.2616 108.582 68.6036C109.468 68.9456 110.235 69.4269 110.881 70.0476C111.539 70.6682 112.052 71.3966 112.42 72.2326C112.787 73.0559 112.971 73.9679 112.971 74.9686C112.971 75.9566 112.787 76.8749 112.42 77.7236C112.052 78.5596 111.539 79.2879 110.881 79.9086C110.235 80.5166 109.468 80.9916 108.582 81.3336C107.708 81.6756 106.751 81.8466 105.713 81.8466ZM105.694 79.2246C106.289 79.2246 106.834 79.1232 107.328 78.9206C107.834 78.7179 108.278 78.4266 108.658 78.0466C109.038 77.6666 109.329 77.2169 109.532 76.6976C109.747 76.1782 109.855 75.6019 109.855 74.9686C109.855 74.3352 109.747 73.7589 109.532 73.2396C109.329 72.7202 109.038 72.2706 108.658 71.8906C108.29 71.5106 107.853 71.2192 107.347 71.0166C106.84 70.8139 106.289 70.7126 105.694 70.7126C105.098 70.7126 104.547 70.8139 104.041 71.0166C103.547 71.2192 103.11 71.5106 102.73 71.8906C102.35 72.2706 102.052 72.7202 101.837 73.2396C101.634 73.7589 101.533 74.3352 101.533 74.9686C101.533 75.5892 101.634 76.1656 101.837 76.6976C102.052 77.2169 102.343 77.6666 102.711 78.0466C103.091 78.4266 103.534 78.7179 104.041 78.9206C104.547 79.1232 105.098 79.2246 105.694 79.2246ZM103.965 67.2356L106.53 64.4996H109.722L106.283 67.2356H103.965ZM118.847 81.6186L113.109 68.3186H116.434L121.45 80.0986H119.493L124.585 68.3186H127.644L121.887 81.6186H118.847ZM131.586 73.6766H137.989V76.0706H131.586V73.6766ZM131.814 79.1486H139.053V81.6186H128.755V68.3186H138.806V70.7886H131.814V79.1486ZM141.502 81.6186V68.3186H144.58V81.6186H141.502ZM152.106 81.8466C151.042 81.8466 150.023 81.7072 149.047 81.4286C148.072 81.1372 147.287 80.7636 146.691 80.3076L147.736 77.9896C148.306 78.3949 148.978 78.7306 149.75 78.9966C150.536 79.2499 151.327 79.3766 152.125 79.3766C152.733 79.3766 153.221 79.3196 153.588 79.2056C153.968 79.0789 154.247 78.9079 154.424 78.6926C154.602 78.4772 154.69 78.2302 154.69 77.9516C154.69 77.5969 154.551 77.3182 154.272 77.1156C153.994 76.9002 153.626 76.7292 153.17 76.6026C152.714 76.4632 152.208 76.3366 151.65 76.2226C151.106 76.0959 150.555 75.9439 149.997 75.7666C149.453 75.5892 148.952 75.3612 148.496 75.0826C148.04 74.8039 147.667 74.4366 147.375 73.9806C147.097 73.5246 146.957 72.9419 146.957 72.2326C146.957 71.4726 147.16 70.7822 147.565 70.1616C147.983 69.5282 148.604 69.0279 149.427 68.6606C150.263 68.2806 151.308 68.0906 152.562 68.0906C153.398 68.0906 154.222 68.1919 155.032 68.3946C155.843 68.5846 156.559 68.8759 157.179 69.2686L156.229 71.6056C155.609 71.2509 154.988 70.9912 154.367 70.8266C153.747 70.6492 153.139 70.5606 152.543 70.5606C151.948 70.5606 151.46 70.6302 151.08 70.7696C150.7 70.9089 150.428 71.0926 150.263 71.3206C150.099 71.5359 150.016 71.7892 150.016 72.0806C150.016 72.4226 150.156 72.7012 150.434 72.9166C150.713 73.1192 151.08 73.2839 151.536 73.4106C151.992 73.5372 152.493 73.6639 153.037 73.7906C153.595 73.9172 154.146 74.0629 154.69 74.2276C155.248 74.3922 155.754 74.6139 156.21 74.8926C156.666 75.1712 157.034 75.5386 157.312 75.9946C157.604 76.4506 157.749 77.0269 157.749 77.7236C157.749 78.4709 157.54 79.1549 157.122 79.7756C156.704 80.3962 156.077 80.8966 155.241 81.2766C154.418 81.6566 153.373 81.8466 152.106 81.8466Z" fill="#514C46"/>
<line y1="-1" x2="90.4032" y2="-1" transform="matrix(0.738855 -0.673865 0.792775 0.609514 6.08868 62.9196)" stroke="#F9A447" stroke-width="2"/>
<line y1="-1" x2="97.0713" y2="-1" transform="matrix(0.772258 0.635309 -0.793514 0.608551 71.5449 2.53165)" stroke="#F9A447" stroke-width="2"/>
<line y1="-1" x2="92.358" y2="-1" transform="matrix(0.739199 -0.673487 0.822132 0.569296 26.7002 64.2019)" stroke="#F9A447" stroke-width="2"/>
<line y1="-1" x2="92.4563" y2="-1" transform="matrix(0.760131 0.64977 -0.804587 0.593835 93.6325 2.53165)" stroke="#F9A447" stroke-width="2"/>
<line x1="146.17" y1="36.5566" x2="146.17" y2="46.6578" stroke="#F9A447" stroke-width="2"/>
<line x1="155.541" y1="36.025" x2="155.541" y2="54.6324" stroke="#F9A447" stroke-width="2"/>
<line x1="145.17" y1="35.5566" x2="155.88" y2="35.5566" stroke="#F9A447" stroke-width="2"/>
<rect x="76.5" y="42.9124" width="7.03187" height="5.37968" stroke="#F9A447"/>
<rect x="87.2092" y="42.9124" width="7.03187" height="5.37968" stroke="#F9A447"/>
<rect x="87.2092" y="51.4186" width="7.03187" height="5.37968" stroke="#F9A447"/>
<rect x="76.5" y="51.4186" width="7.03187" height="5.37968" stroke="#F9A447"/>
</g>
<defs>
<filter id="filter0_d_15_17" x="-3" y="0.780975" width="176" height="107.219" filterUnits="userSpaceOnUse" color-interpolation-filters="sRGB">
<feFlood flood-opacity="0" result="BackgroundImageFix"/>
<feColorMatrix in="SourceAlpha" type="matrix" values="0 0 0 0 0 0 0 0 0 0 0 0 0 0 0 0 0 0 127 0" result="hardAlpha"/>
<feOffset dy="4"/>
<feGaussianBlur stdDeviation="2"/>
<feComposite in2="hardAlpha" operator="out"/>
<feColorMatrix type="matrix" values="0 0 0 0 0 0 0 0 0 0 0 0 0 0 0 0 0 0 0.25 0"/>
<feBlend mode="normal" in2="BackgroundImageFix" result="effect1_dropShadow_15_17"/>
<feBlend mode="normal" in="SourceGraphic" in2="effect1_dropShadow_15_17" result="shape"/>
</filter>
</defs>
</svg>
