<svg width="749" height="480" viewBox="0 0 749 480" fill="none" xmlns="http://www.w3.org/2000/svg">
<g clip-path="url(#clip0_48_262)">
<path d="M731.252 414.952H201.929C197.222 414.952 192.707 413.23 189.379 410.164C186.05 407.098 184.18 402.94 184.18 398.604C376.06 378.064 564.333 378.064 749 398.604C749 402.94 747.13 407.098 743.802 410.164C740.473 413.23 735.959 414.952 731.252 414.952Z" fill="#2F2E41"/>
<path d="M749 399.566L184.18 398.604L249.641 297.15L249.954 296.669V73.0758C249.954 70.3619 250.534 67.6745 251.662 65.1671C252.789 62.6597 254.442 60.3814 256.525 58.4624C258.609 56.5433 261.082 55.0211 263.804 53.9826C266.526 52.9441 269.444 52.4097 272.39 52.41H657.658C660.604 52.4097 663.522 52.9441 666.244 53.9826C668.966 55.0211 671.44 56.5433 673.523 58.4624C675.607 60.3814 677.259 62.6597 678.387 65.1671C679.514 67.6745 680.094 70.3619 680.094 73.0758V298.208L749 399.566Z" fill="#3F3D56"/>
<path d="M271.879 66.8347C269.941 66.8367 268.084 67.5466 266.713 68.8086C265.343 70.0705 264.573 71.7816 264.571 73.5663V277.436C264.573 279.221 265.343 280.932 266.714 282.194C268.084 283.456 269.941 284.166 271.879 284.168H661.302C663.239 284.166 665.097 283.456 666.467 282.194C667.837 280.932 668.607 279.221 668.61 277.436V73.5663C668.608 71.7816 667.837 70.0706 666.467 68.8087C665.097 67.5467 663.239 66.8368 661.302 66.8347H271.879Z" fill="white"/>
<path d="M273.511 311.094C272.912 311.095 272.326 311.254 271.822 311.551C271.318 311.849 270.916 312.273 270.665 312.773L250.495 353.162C250.275 353.602 250.179 354.085 250.215 354.568C250.252 355.051 250.419 355.517 250.703 355.925C250.986 356.332 251.376 356.667 251.837 356.899C252.298 357.131 252.814 357.253 253.34 357.253H677.514C678.047 357.253 678.573 357.127 679.039 356.888C679.505 356.648 679.897 356.303 680.178 355.885C680.458 355.466 680.618 354.989 680.642 354.498C680.666 354.006 680.553 353.518 680.314 353.078L658.39 312.689C658.131 312.208 657.732 311.805 657.237 311.523C656.742 311.241 656.171 311.092 655.589 311.094H273.511Z" fill="#2F2E41"/>
<path d="M465.024 63.469C467.619 63.469 469.722 61.5315 469.722 59.1415C469.722 56.7516 467.619 54.8141 465.024 54.8141C462.429 54.8141 460.326 56.7516 460.326 59.1415C460.326 61.5315 462.429 63.469 465.024 63.469Z" fill="white"/>
<path d="M423.331 364.946C422.643 364.947 421.974 365.157 421.427 365.542C420.881 365.928 420.487 366.469 420.307 367.081L415.248 384.391C415.123 384.818 415.106 385.267 415.199 385.701C415.293 386.136 415.493 386.544 415.786 386.896C416.078 387.247 416.454 387.532 416.886 387.728C417.317 387.924 417.791 388.026 418.272 388.026H514.493C514.993 388.026 515.485 387.916 515.928 387.705C516.372 387.495 516.755 387.189 517.044 386.814C517.334 386.44 517.522 386.007 517.593 385.551C517.664 385.096 517.616 384.632 517.452 384.197L510.947 366.888C510.734 366.321 510.334 365.829 509.804 365.482C509.273 365.134 508.639 364.947 507.987 364.946H423.331Z" fill="#2F2E41"/>
<path d="M680.094 293.304V297.15H249.641L249.965 296.67V293.304H680.094Z" fill="#2F2E41"/>
<g filter="url(#filter0_d_48_262)">
<path d="M668.088 134.631C708.45 134.631 741.17 104.493 741.17 67.3155C741.17 30.1382 708.45 0 668.088 0C627.726 0 595.006 30.1382 595.006 67.3155C595.006 104.493 627.726 134.631 668.088 134.631Z" fill="#F9A447"/>
</g>
<path d="M698.365 96.6459H637.811C636.704 96.6449 635.642 96.2393 634.859 95.5182C634.076 94.797 633.636 93.8192 633.635 92.7993V59.1415C633.636 58.1217 634.076 57.1439 634.859 56.4228C635.642 55.7016 636.704 55.296 637.811 55.2949H698.365C699.472 55.296 700.533 55.7016 701.316 56.4228C702.099 57.1439 702.54 58.1217 702.541 59.1415V92.7993C702.54 93.8192 702.099 94.797 701.316 95.5182C700.533 96.2393 699.472 96.6449 698.365 96.6459ZM637.811 59.1415V92.7993H698.368L698.365 59.1415L637.811 59.1415Z" fill="white"/>
<path d="M686.88 59.1415H649.295V43.7551C649.295 32.6107 657.199 24.5221 668.088 24.5221C678.977 24.5221 686.88 32.6107 686.88 43.7551L686.88 59.1415ZM653.471 55.2949H682.704V43.7551C682.704 34.6959 676.694 28.3687 668.088 28.3687C659.482 28.3687 653.471 34.696 653.471 43.7551L653.471 55.2949Z" fill="white"/>
<path d="M668.088 78.8553C670.394 78.8553 672.264 77.1332 672.264 75.0087C672.264 72.8843 670.394 71.1621 668.088 71.1621C665.781 71.1621 663.912 72.8843 663.912 75.0087C663.912 77.1332 665.781 78.8553 668.088 78.8553Z" fill="white"/>
<path d="M617.07 215.017H316.11C314.633 215.016 313.216 214.474 312.171 213.512C311.126 212.549 310.539 211.245 310.537 209.884V141.119C310.539 139.758 311.126 138.453 312.171 137.491C313.216 136.528 314.633 135.987 316.11 135.985H617.07C618.548 135.987 619.964 136.528 621.009 137.491C622.054 138.453 622.642 139.758 622.643 141.119V209.884C622.642 211.245 622.054 212.549 621.009 213.512C619.964 214.474 618.548 215.016 617.07 215.017ZM316.11 138.039C315.224 138.04 314.374 138.364 313.747 138.942C313.12 139.519 312.767 140.302 312.766 141.119V209.884C312.767 210.7 313.12 211.483 313.747 212.061C314.374 212.638 315.224 212.963 316.11 212.964H617.07C617.957 212.963 618.807 212.638 619.434 212.061C620.061 211.483 620.413 210.7 620.414 209.884V141.119C620.413 140.302 620.061 139.519 619.434 138.942C618.807 138.364 617.957 138.04 617.07 138.039L316.11 138.039Z" fill="#E6E6E6"/>
<path d="M362.873 193.774C375.412 193.774 385.576 184.412 385.576 172.863C385.576 161.314 375.412 151.951 362.873 151.951C350.335 151.951 340.17 161.314 340.17 172.863C340.17 184.412 350.335 193.774 362.873 193.774Z" fill="#E6E6E6"/>
<path d="M415.306 158.922C414.808 158.921 414.316 159.011 413.856 159.186C413.396 159.36 412.978 159.617 412.626 159.941C412.274 160.264 411.995 160.649 411.805 161.072C411.614 161.495 411.516 161.949 411.516 162.407C411.516 162.865 411.614 163.319 411.805 163.742C411.995 164.165 412.274 164.55 412.626 164.873C412.978 165.197 413.396 165.454 413.856 165.629C414.316 165.803 414.808 165.893 415.306 165.892H593.685C594.688 165.892 595.651 165.525 596.36 164.871C597.07 164.218 597.469 163.331 597.469 162.407C597.469 161.483 597.07 160.596 596.36 159.943C595.651 159.289 594.688 158.922 593.685 158.922H415.306Z" fill="#E6E6E6"/>
</g>
<defs>
<filter id="filter0_d_48_262" x="591.006" y="0" width="154.164" height="142.631" filterUnits="userSpaceOnUse" color-interpolation-filters="sRGB">
<feFlood flood-opacity="0" result="BackgroundImageFix"/>
<feColorMatrix in="SourceAlpha" type="matrix" values="0 0 0 0 0 0 0 0 0 0 0 0 0 0 0 0 0 0 127 0" result="hardAlpha"/>
<feOffset dy="4"/>
<feGaussianBlur stdDeviation="2"/>
<feComposite in2="hardAlpha" operator="out"/>
<feColorMatrix type="matrix" values="0 0 0 0 0 0 0 0 0 0 0 0 0 0 0 0 0 0 0.25 0"/>
<feBlend mode="normal" in2="BackgroundImageFix" result="effect1_dropShadow_48_262"/>
<feBlend mode="normal" in="SourceGraphic" in2="effect1_dropShadow_48_262" result="shape"/>
</filter>
<clipPath id="clip0_48_262">
<rect width="749" height="480" fill="white"/>
</clipPath>
</defs>
</svg>
